<svg xmlns="http://www.w3.org/2000/svg" width="117.333" height="117.333" viewBox="0 0 117.333 117.333"><defs><style>.a{fill:#9c6b4b;}</style></defs><g transform="translate(97.064 57.516)"><circle class="a" cx="2.301" cy="2.301" r="2.301"></circle></g><g transform="translate(15.389 57.516)"><circle class="a" cx="2.301" cy="2.301" r="2.301"></circle></g><g transform="translate(56.801 97.778)"><circle class="a" cx="2.301" cy="2.301" r="2.301"></circle></g><g transform="translate(36.095 42.792)"><path class="a" d="M145.948,179.629H131.813c1.276-2.1,3.882-4.489,6.26-6.666,4.556-4.173,9.268-8.488,9.268-13.7A10.36,10.36,0,0,0,136.881,148.8c-5.244,0-11.369,2.977-11.369,11.367a2.3,2.3,0,1,0,4.6,0c0-6.107,4.732-6.766,6.767-6.766a5.821,5.821,0,0,1,5.86,5.86c0,3.189-4.131,6.971-7.775,10.308-4.4,4.025-8.547,7.828-8.547,12.36v2.3h19.529a2.3,2.3,0,0,0,0-4.6Z" transform="translate(-125.512 -148.8)"></path></g><g transform="translate(58.666 42.562)"><path class="a" d="M227.006,169.854h-4.6V150.3a2.3,2.3,0,0,0-4.246-1.227l-13.8,21.856a2.3,2.3,0,0,0,1.945,3.529h11.5v6.9a2.3,2.3,0,1,0,4.6,0v-6.9h4.6a2.3,2.3,0,0,0,0-4.6Zm-9.2,0h-7.329l7.329-11.6Z" transform="translate(-203.999 -147.999)"></path></g><path class="a" d="M113.882,55.216a3.451,3.451,0,0,0-3.451,3.451A51.765,51.765,0,1,1,58.667,6.9,51.265,51.265,0,0,1,90.348,17.725a3.451,3.451,0,0,0,4.229-5.455A58.1,58.1,0,0,0,58.667,0a58.667,58.667,0,1,0,58.667,58.667A3.451,3.451,0,0,0,113.882,55.216Z" transform="translate(0 0)"></path><g transform="translate(78.222 0.987)"><path class="a" d="M291.556,3.432A3.451,3.451,0,0,0,288.1,6.883V19.7H275.451a3.451,3.451,0,0,0,0,6.9h16.1a3.451,3.451,0,0,0,3.451-3.451V6.883A3.451,3.451,0,0,0,291.556,3.432Z" transform="translate(-272 -3.432)"></path></g><g transform="translate(56.801 17.255)"><circle class="a" cx="2.301" cy="2.301" r="2.301"></circle></g></svg>