<svg xmlns="http://www.w3.org/2000/svg"
    xmlns:xlink="http://www.w3.org/1999/xlink" width="1920" height="491" viewBox="0 0 1920 491">
    <defs>
        <style>.a{fill:#fff;stroke:#707070;}.b{clip-path:url(#a);}.c{fill:#102997;}.d{opacity:0.15;mix-blend-mode:multiply;isolation:isolate;fill:url(#b);}</style>
        <clipPath id="a">
            <rect class="a" width="100%" height="491"/>
        </clipPath>
        <linearGradient id="b" x1="0.106" y1="0.858" x2="0.863" y2="-0.105" gradientUnits="objectBoundingBox">
            <stop offset="0" stop-color="#feb53a"/>
            <stop offset="1" stop-color="#d65c15"/>
        </linearGradient>
    </defs>
    <g class="b">
        <path class="c" d="M14.322,1400.366s1311.482,292.947,1867.426-102.49S2349.506,616.85,3425.914,693.99,4628.9,473.212,4628.9,473.212,3532.037,22.78,3487.68,22.494s-3346.3,248.128-3346.3,248.128Z" transform="translate(-2178.352 -713.911) rotate(5)"/>
        <path class="d" d="M17832.2,11085.794c-443.531-.033-788.623-161.492-861.187-198.111-9.105-4.6-13.92-7.227-14.1-7.327.248-1.271,120.652-613.828,193.795-952.019,359.688,4.406,1263.869,15.555,2019.234,25.374,570.9,70.66,1146.088,141.831,1539.943,190.56,250.373,125.759,558.816,284.352,681.156,347.391l32.893,52.623c-67.6,65.672-329.816,229.01-1196.91,90.135-43.514-6.97-85.072-13.158-124.939-18.608q-36.583-8.915-73.4-17l-.283-.062-2.08-.455-.289-.062-2.049-.446-.342-.075-1.969-.427-.408-.089-2.219-.479-2.07-.446-.129-.027c-1.455-.313-2.881-.618-4.336-.93l-.059-.013c-360.811-77.046-735.279-88.547-1032.951,70.283a893.773,893.773,0,0,0-116.793,74.381c-.965.727-1.924,1.445-2.889,2.169-348.049,260.826-708.154,342.369-1020.2,343.646-2.426.01-4.832.015-7.252.015Z" transform="translate(-19052.984 -10358.391)"/>
        <path class="d" d="M12.754,1198.687S454.3,1782.295,1247.076,1032.469,3543.719,1040.6,4246.809,789.19,4059.432,26.839,4059.432,26.839,111.674,87.861,94.639,87.749,12.754,1198.687,12.754,1198.687Z" transform="translate(-2087.889 -875.126) rotate(5)"/>
    </g>
</svg>