<svg xmlns="http://www.w3.org/2000/svg"
    xmlns:xlink="http://www.w3.org/1999/xlink" width="1920" height="1162" viewBox="0 0 1920 1162">
    <defs>
        <style>.a{fill:#fff;stroke:#707070;}.b{clip-path:url(#a);}.c{fill:#9c6b4b;opacity:0.94;}.d{opacity:0.28;fill:url(#b);}.e{opacity:0.15;mix-blend-mode:multiply;isolation:isolate;fill:url(#c);}</style>
        <clipPath id="a">
            <rect class="a" width="100%" height="1162"></rect>
        </clipPath>
        <linearGradient id="b" x1="0.5" y1="1" x2="0.5" gradientUnits="objectBoundingBox">
            <stop offset="0" stop-color="#9c6b4b"></stop>
            <stop offset="1" stop-color="#483a30"></stop>
        </linearGradient>
        <linearGradient id="c" x1="0.5" y1="1" x2="0.5" gradientUnits="objectBoundingBox">
            <stop offset="0" stop-color="#9c6b4b"></stop>
            <stop offset="1" stop-color="#472f1f"></stop>
        </linearGradient>
    </defs>
    <g class="b">
        <path class="c" d="M11721.678,10272.509h-.023c-24.1,0-49.581-.841-75.722-2.5-24.855-1.578-51.1-3.944-77.993-7.035-25.4-2.918-52.229-6.578-79.755-10.878-25.689-4.012-52.944-8.731-81.008-14.026-108.612-20.492-219.3-47.557-326.349-73.73l-.017,0-.013,0c-176.744-43.216-343.685-84.034-477.168-89.549-18.28-.755-36.813-1.138-55.085-1.138-22.362,0-45,.572-67.281,1.7-21.318,1.081-42.9,2.7-64.14,4.812-20.241,2.014-40.708,4.528-60.83,7.477-19.113,2.8-38.411,6.063-57.357,9.7a1290.677,1290.677,0,0,0-191.39,52.113c-24.147,8.647-47.887,18.012-70.557,27.833-18.139,7.857-35.646,16.026-52.034,24.28-28.113,14.157-43.067,23.594-43.215,23.688l-13.959-399.755-190.24-1.212c27.646-9.3,56.381-17.681,85.4-24.913,31.133-7.759,63.438-14.405,96.018-19.753,34.713-5.7,70.667-10.076,106.862-13.011,18.9-1.533,38.271-2.706,57.571-3.483,19.831-.8,40.142-1.205,60.369-1.205,29.833,0,60.5.882,91.138,2.621,31.761,1.8,64.393,4.577,96.991,8.248,33.723,3.8,68.354,8.658,102.931,14.449,35.708,5.981,72.366,13.123,108.957,21.229,57.53,12.744,113.966,23.974,167.74,33.376,52.1,9.111,103.15,16.761,151.747,22.738,46.99,5.779,92.956,10.15,136.621,12.99,42.167,2.742,83.336,4.132,122.362,4.132,22.988,0,45.746-.481,67.64-1.432,21.4-.93,42.569-2.33,62.909-4.164,19.86-1.79,39.5-4.043,58.373-6.7,18.408-2.589,36.588-5.628,54.032-9.031,16.994-3.315,33.778-7.072,49.886-11.166,15.66-3.979,31.114-8.388,45.934-13.1,14.386-4.576,28.576-9.569,42.176-14.84,13.188-5.112,26.178-10.623,38.611-16.38,12.026-5.567,23.884-11.529,35.242-17.719,10.954-5.969,21.744-12.315,32.07-18.861,9.94-6.3,19.728-12.965,29.088-19.8,8.985-6.564,17.835-13.478,26.3-20.548,8.1-6.762,16.076-13.857,23.711-21.093,7.266-6.883,14.438-14.1,21.315-21.437a530.188,530.188,0,0,0,36.216-43.122c4.7-6.231,9.53-12.681,15.361-20.465,31.053-41.443,69.7-93.022,115.822-147.274,12-14.112,24.074-27.888,35.9-40.942,12.837-14.175,25.765-27.932,38.423-40.888,13.6-13.918,27.331-27.37,40.823-39.982,14.36-13.424,28.862-26.285,43.1-38.225,33.734,85.121,61.933,166.851,83.811,242.92,6.225,21.643,12.021,43.131,17.227,63.868,5.451,21.712,10.408,43.211,14.734,63.9,4.516,21.6,8.466,42.9,11.74,63.314,3.411,21.264,6.186,42.163,8.246,62.118,2.141,20.726,3.571,41.017,4.251,60.31.705,20,.622,39.474-.246,57.889a550.446,550.446,0,0,1-5.243,54.854,427.153,427.153,0,0,1-10.741,51.207,336.652,336.652,0,0,1-16.741,46.947,276.251,276.251,0,0,1-23.241,42.076c-4.455,6.59-9.238,12.989-14.215,19.019-5.044,6.111-10.436,12.023-16.027,17.571a238.963,238.963,0,0,1-17.9,16.046,243.57,243.57,0,0,1-19.843,14.445c-11.179,7.309-22.971,14.213-35.049,20.523-11.851,6.191-24.316,11.985-37.054,17.222-12.484,5.134-25.581,9.876-38.927,14.095-13.067,4.132-26.752,7.88-40.675,11.142-13.617,3.19-27.847,6-42.295,8.363-14.107,2.3-28.839,4.241-43.785,5.758-14.589,1.479-29.779,2.6-45.147,3.327C11753.069,10272.148,11737.463,10272.509,11721.678,10272.509Z" transform="translate(-9945.711 -9201.918)"></path>
        <path class="d" d="M11721.671,10227.286h-.017c-24.1,0-49.581-.841-75.722-2.5-24.855-1.578-51.1-3.944-77.993-7.035-25.358-2.913-52.192-6.572-79.755-10.877-25.689-4.013-52.944-8.732-81.008-14.026-108.623-20.5-219.315-47.561-326.364-73.734-176.748-43.216-343.694-84.036-477.181-89.55-18.283-.756-36.82-1.139-55.1-1.139-22.345,0-44.981.573-67.281,1.7-21.316,1.08-42.9,2.7-64.139,4.812-20.23,2.012-40.7,4.527-60.83,7.476-19.111,2.8-38.408,6.063-57.356,9.7a1290.627,1290.627,0,0,0-191.386,52.113c-24.141,8.646-47.878,18.009-70.555,27.832-18.145,7.861-35.65,16.03-52.031,24.28-28.1,14.152-43.065,23.594-43.214,23.688l-8.486-243.01c20.659-6.616,41.246-12.841,61.188-18.5,19.688-5.591,39.384-10.812,58.543-15.521,18.855-4.635,37.746-8.907,56.146-12.7,18.112-3.732,36.279-7.108,54-10.035,17.413-2.877,34.94-5.41,52.095-7.529,16.808-2.076,33.778-3.819,50.44-5.182,16.307-1.333,32.8-2.34,49.033-2.993,15.849-.639,31.956-.963,47.875-.963,18.826,0,38.1.454,57.274,1.349,18.382.857,37.348,2.153,56.37,3.853,35.375,3.16,71.957,7.76,111.835,14.062,74.757,11.815,151.484,28.159,232.718,45.462,57.469,12.243,116.891,24.9,181.411,37.263,73.219,14.027,141.467,25.4,208.646,34.775,37.316,5.206,73.369,9.815,107.155,13.7,34.463,3.961,67.753,7.3,98.943,9.938,31.705,2.676,62.359,4.713,91.111,6.053,29.111,1.356,57.26,2.044,83.661,2.044,20.226,0,39.981-.4,58.719-1.2,18.878-.8,37.327-2.017,54.835-3.621,17.59-1.612,34.789-3.665,51.121-6.1,16.369-2.442,32.377-5.347,47.579-8.634s30.087-7.062,44.209-11.218,27.915-8.815,41.008-13.856c13.069-5.031,25.848-10.6,37.978-16.548,12.091-5.929,23.907-12.42,35.121-19.292,11.169-6.845,22.081-14.276,32.434-22.09,10.3-7.772,20.365-16.163,29.917-24.939,9.5-8.725,18.772-18.093,27.571-27.842,8.733-9.677,17.277-20.039,25.4-30.8,8.036-10.65,15.906-22.025,23.394-33.808,7.394-11.636,14.647-24.041,21.562-36.871,6.815-12.65,13.511-26.1,19.9-39.988,6.285-13.658,12.479-28.178,18.408-43.154,4.166,24.567,7.494,48.6,9.894,71.426,2.51,23.87,4.076,47.109,4.656,69.071.6,22.89.155,45.025-1.337,65.793a505.143,505.143,0,0,1-8.088,61.587c-1.96,9.9-4.252,19.636-6.812,28.927-2.6,9.454-5.559,18.716-8.782,27.528-3.281,8.97-6.931,17.723-10.849,26.015-3.985,8.438-8.361,16.643-13.009,24.385a257.07,257.07,0,0,1-15.263,22.64,243.2,243.2,0,0,1-17.613,20.777,238.571,238.571,0,0,1-20.058,18.8,242.764,242.764,0,0,1-22.595,16.707c-11.179,7.309-22.972,14.214-35.05,20.524-11.849,6.189-24.315,11.984-37.055,17.223-12.487,5.135-25.585,9.877-38.928,14.095-13.079,4.135-26.764,7.883-40.675,11.142-13.622,3.191-27.852,6-42.294,8.362-14.115,2.3-28.848,4.242-43.786,5.757-14.57,1.479-29.762,2.6-45.149,3.327C11753.064,10226.926,11737.458,10227.286,11721.671,10227.286Z" transform="translate(-9945.711 -9156.695)"></path>
        <path class="e" d="M11721.678,10227.287h-.022c-24.106,0-49.583-.841-75.722-2.5-24.837-1.576-51.077-3.943-77.993-7.035-25.371-2.916-52.205-6.575-79.755-10.878-25.664-4.009-52.919-8.728-81.007-14.026-108.647-20.5-219.328-47.562-326.365-73.735-176.751-43.217-343.7-84.037-477.184-89.551-18.28-.755-36.813-1.138-55.084-1.138-22.355,0-44.992.572-67.281,1.7-21.34,1.082-42.919,2.7-64.139,4.812-20.241,2.013-40.707,4.529-60.831,7.477-19.111,2.8-38.408,6.063-57.356,9.7a1290.675,1290.675,0,0,0-191.389,52.113c-24.137,8.643-47.875,18.008-70.557,27.833-18.139,7.857-35.646,16.026-52.036,24.279-27.681,13.941-43.066,23.595-43.214,23.688l-3.229-92.439c18.7-7.886,37.888-15.453,57.021-22.494,19.938-7.337,40.406-14.316,60.836-20.743,21.243-6.682,43-12.942,64.671-18.607,22.5-5.882,45.552-11.294,68.523-16.087,23.775-4.96,48.134-9.395,72.4-13.182,25.068-3.912,50.737-7.24,76.292-9.893,26.389-2.737,53.372-4.829,80.2-6.217,27.681-1.433,55.988-2.158,84.136-2.158,23.2,0,46.881.492,70.386,1.464,24.048.994,48.589,2.517,72.94,4.525,24.9,2.055,50.307,4.675,75.507,7.786,25.719,3.175,51.99,6.957,78.084,11.244,26.6,4.37,53.745,9.384,80.673,14.9,27.463,5.627,55.479,11.938,83.269,18.759,28.308,6.946,57.2,14.622,85.88,22.815,29.2,8.341,58.971,17.448,88.5,27.069,19.187,6.252,38.683,12.183,57.943,17.625,19.044,5.381,38.364,10.428,57.425,15,18.84,4.523,37.979,8.718,56.886,12.467,18.65,3.7,37.6,7.067,56.33,10.013,18.494,2.907,37.253,5.479,55.755,7.642,18.276,2.138,36.835,3.938,55.161,5.355,35.915,2.776,72.409,4.184,108.468,4.184,24.327,0,49.009-.641,73.356-1.9,23.892-1.238,48.14-3.11,72.071-5.563,23.46-2.4,47.26-5.435,70.739-9,22.981-3.494,46.315-7.607,69.355-12.226,22.531-4.517,45.385-9.641,67.926-15.227,22.053-5.466,44.409-11.524,66.447-18.008,21.57-6.347,43.412-13.268,64.919-20.57,21.034-7.142,42.346-14.851,63.344-22.913a266.837,266.837,0,0,1-16.116,26.73,246.73,246.73,0,0,1-19.105,24.379,238.309,238.309,0,0,1-22.236,21.858,242.777,242.777,0,0,1-25.512,19.176c-11.18,7.31-22.972,14.215-35.05,20.523-11.856,6.194-24.322,11.988-37.052,17.223-12.483,5.133-25.58,9.875-38.926,14.095-13.085,4.136-26.769,7.885-40.674,11.142-13.617,3.19-27.847,6-42.293,8.362-14.112,2.3-28.844,4.241-43.784,5.757-14.563,1.479-29.754,2.6-45.148,3.327C11753.067,10226.927,11737.461,10227.287,11721.678,10227.287Zm1306.139-822.71,0-.006,0,0,0,0v-1.1l43.131-51.274a.356.356,0,0,1-.042.059c-1.622,2.115-16.613,21.551-43.089,52.323Z" transform="translate(-9945.711 -9156.695)"></path>
    </g>
</svg>