<svg xmlns="http://www.w3.org/2000/svg" width="53.949" height="53.949" viewBox="0 0 53.949 53.949">
    <defs>
        <style>.a{fill:#fff;}</style>
    </defs>
    <path class="a" d="M218.949,66.776v2.95a3.257,3.257,0,0,0-.094.456,24.846,24.846,0,0,1-2.453,9.455,26.615,26.615,0,0,1-20.509,15.28c-.809.136-1.629.208-2.444.309H190.5a3.263,3.263,0,0,0-.458-.094,24.808,24.808,0,0,1-9.5-2.474,26.619,26.619,0,0,1-15.23-20.49c-.135-.808-.207-1.627-.309-2.441v-2.95a3.257,3.257,0,0,0,.093-.455,24.852,24.852,0,0,1,2.453-9.455,26.617,26.617,0,0,1,20.509-15.281c.809-.136,1.629-.207,2.444-.309h2.95a3.312,3.312,0,0,0,.459.094,24.84,24.84,0,0,1,9.454,2.454A26.616,26.616,0,0,1,218.64,64.334C218.776,65.142,218.848,65.961,218.949,66.776ZM167.51,68.23a24.465,24.465,0,1,0,24.466-24.444A24.435,24.435,0,0,0,167.51,68.23Z" transform="translate(-165 -41.276)"></path>
    <path class="a" d="M352.031,155.13h6l-.707,5.748h-5.282v14.858h-5.836V160.979H341.18v-5.848h5.027c.012-.266.025-.468.029-.67.031-1.842-.055-3.694.116-5.523a6.08,6.08,0,0,1,5.55-5.552c2.012-.095,4.032-.018,6.092-.018v5.318h-1.184c-.983,0-1.966,0-2.949.007a1.538,1.538,0,0,0-1.746,1.5,26.75,26.75,0,0,0-.081,2.679C352.023,153.607,352.031,154.339,352.031,155.13Z" transform="translate(-322.616 -132.586)"></path>
</svg>