<svg xmlns="http://www.w3.org/2000/svg" width="129.506" height="149.59" viewBox="0 0 129.506 149.59">
    <defs>
        <style>.a{fill:#78afee;}</style>
    </defs>
    <g transform="translate(-2.85 8.529) rotate(-8)">
        <path class="a" d="M96.889,61.327C97.071,88.492,76.458,97.384,48.445,97.6,20.432,97.384-.18,88.492,0,61.327-.18,34.593,20.432-.211,48.445,0,76.458-.211,97.071,34.592,96.889,61.327Z" transform="translate(2.391 45.188)"></path>
        <path class="a" d="M18.887,31.817a13.159,13.159,0,0,0,7.226-8.474,19.456,19.456,0,0,0-.3-12.212,17.418,17.418,0,0,0-7.216-9.28A11.374,11.374,0,0,0,8.076.9c-6.794,2.876-9.9,12.153-6.92,20.685,2.379,6.791,7.91,11.085,13.494,11.1a10.744,10.744,0,0,0,4.236-.86Zm0,0" transform="translate(0.516 16.611) rotate(1)"></path>
        <path class="a" d="M15.476,38.841c8.5.016,15.4-8.676,15.381-19.376S23.911.044,15.412.028.014,8.706.032,19.408,6.978,38.825,15.476,38.841Zm0,0" transform="translate(34.463 0) rotate(1)"></path>
        <path class="a" d="M10.4,34.418h0a12.226,12.226,0,0,0,4.034.83c6.267.2,12.229-4.539,14.335-12.048a20.405,20.405,0,0,0-.633-13,15.222,15.222,0,0,0-8.458-8.854A12.3,12.3,0,0,0,8.395,2.548,17.175,17.175,0,0,0,1.308,12.561C-1.249,21.68,2.828,31.485,10.4,34.418Zm0,0" transform="matrix(0.946, 0.326, -0.326, 0.946, 78.362, 8.964)"></path>
        <path class="a" d="M22.782,2.62l0,0C16.911-2.178,8.149-.12,3.246,7.206s-4.114,17.2,1.747,22a11.331,11.331,0,0,0,7.242,2.6c4.5.008,9.174-2.52,12.3-7.18,4.9-7.33,4.114-17.2-1.747-22Zm0,0" transform="translate(95.584 45.181) rotate(1)"></path>
    </g>
</svg>