<svg xmlns="http://www.w3.org/2000/svg" width="20.956" height="32.925" viewBox="0 0 20.956 32.925">
    <defs>
        <style>.a{fill:#0d6efd;}</style>
    </defs>
    <path class="a" d="M131.571,11.3a.6.6,0,0,0-.554-.329h-7.26l7.2-10.152a.454.454,0,0,0,0-.549A.667.667,0,0,0,130.4,0h-9.845A.667.667,0,0,0,120,.274l-9.229,16.463a.454.454,0,0,0,0,.549.761.761,0,0,0,.554.274h6.337l-6.891,14.652a.517.517,0,0,0,.246.659.507.507,0,0,0,.308.055.749.749,0,0,0,.492-.165l19.689-20.853A.536.536,0,0,0,131.571,11.3ZM113.481,29.249l5.661-12.073a.485.485,0,0,0-.062-.494.8.8,0,0,0-.492-.219h-6.276L120.926,1.1h8.368l-7.26,10.152a.454.454,0,0,0,0,.549.667.667,0,0,0,.554.274h7.137Z" transform="translate(-110.682)"></path>
</svg>