<svg xmlns="http://www.w3.org/2000/svg" width="23.099" height="32.932" viewBox="0 0 23.099 32.932">
    <defs>
        <style>.a{fill:#fff;}</style>
    </defs>
    <g transform="translate(-22.442 -4.75)">
        <path class="a" d="M85.736,15.665H86.5v.764a.486.486,0,0,0,.973,0v-.764h.764a.486.486,0,0,0,0-.973h-.764v-.764a.486.486,0,1,0-.973,0v.764h-.764a.486.486,0,0,0,0,.973Z" transform="translate(-45.353 -6.276)"></path>
        <path class="a" d="M40.722,19.7A2.156,2.156,0,0,0,42.7,17.786h2.356a.486.486,0,0,0,.486-.486V5.236a.486.486,0,0,0-.486-.486H35.347a.486.486,0,0,0-.486.486V7.852a6.864,6.864,0,0,0-7.748,6.82h0v.755A2.151,2.151,0,0,0,27.26,19.7a6.9,6.9,0,0,0,3.6,4.708v1.878h-.391a8.031,8.031,0,0,0-8.031,8.031V37.2a.486.486,0,0,0,.486.486H45.054a.486.486,0,0,0,.486-.486V34.319a8.031,8.031,0,0,0-8.031-8.031h-.391V24.409a6.9,6.9,0,0,0,3.6-4.708Zm.134-1.007c.008-.135.013-.271.013-.408V16.422a1.175,1.175,0,0,1-.013,2.272ZM35.834,5.723h8.735V16.814h-1.99a2.157,2.157,0,0,0-1.708-1.387v-.754a6.889,6.889,0,0,0-5.037-6.626ZM33.991,8.768a5.908,5.908,0,0,1,5.887,5.549,4.265,4.265,0,0,1-3.254-1.329A.486.486,0,0,0,36,12.876c-1.784,1.041-4.936,1.256-7.892,1.3A5.91,5.91,0,0,1,33.991,8.768Zm-7.748,8.788a1.179,1.179,0,0,1,.87-1.134v1.864c0,.137.005.273.013.408A1.18,1.18,0,0,1,26.243,17.556Zm1.843.73V15.149c2.92-.043,6.049-.25,8.058-1.245a5.682,5.682,0,0,0,3.753,1.39v2.993a5.905,5.905,0,0,1-11.811,0Zm8.5,8.974-2.591,4.433L31.4,27.26ZM23.415,34.319a7.043,7.043,0,0,1,4.51-6.576v1.862a1.846,1.846,0,0,0-1.38,1.8v.745a.486.486,0,1,0,.973,0V31.4a.892.892,0,0,1,1.784,0v.745a.486.486,0,1,0,.973,0V31.4a1.846,1.846,0,0,0-1.377-1.8V27.444a7,7,0,0,1,1.38-.177L33.5,32.788v3.921H23.415Zm20.192-3.557a7.065,7.065,0,0,1,.962,3.557v2.39H34.477V32.788l3.228-5.521a7,7,0,0,1,1.38.177V29.23a1.737,1.737,0,1,0,.973,0V27.743a7.073,7.073,0,0,1,3.549,3.018Zm-4.034-.63a.764.764,0,1,1-.764.764.764.764,0,0,1,.764-.764Zm-3.428-3.844H31.837V24.817a6.85,6.85,0,0,0,4.308,0Z" transform="translate(0 0)"></path>
    </g>
</svg>