<svg xmlns="http://www.w3.org/2000/svg" width="25.395" height="33.287" viewBox="0 0 25.395 33.287">
    <defs>
        <style>.a{fill:#0d6efd;stroke:#fff;stroke-width:0.3px;}</style>
    </defs>
    <g transform="translate(0.15 0.205)">
        <path class="a" d="M69.553,13.374l-1.672-.965-.965,1.672,3.344,1.93-.965,1.672,1.672.965.965-1.672,3.344,1.93.965-1.672-1.672-.965,2.714-4.7a4.826,4.826,0,0,1,4.848,4.826v1.93a4.864,4.864,0,0,1-4.826,4.89,2.9,2.9,0,0,0-2.9,2.9v1.03H70.547v-2.76l1.318.761.965-1.672-9.393-5.423-.965,1.672,2.284,1.318v6.269a2.9,2.9,0,0,0-1.93,2.73V31H60.9v1.93h25.1V31H84.06v-.965a2.9,2.9,0,0,0-2.9-2.9H80.2v-1.03a2.876,2.876,0,0,0-.391-1.451,6.831,6.831,0,0,0,4.252-6.335v-1.93a6.753,6.753,0,0,0-5.712-6.672L82.29,2.9,77.274,0Zm-.936,9.892v3.874h-1.93V22.152Zm9.652,2.845v2.96h2.9a.966.966,0,0,1,.965.965V31H64.756v-.965a.966.966,0,0,1,.965-.965H76.338v-2.96a.965.965,0,1,1,1.93,0ZM71.224,14.339,76.05,5.98l1.672.965L72.9,15.3ZM79.653,3.6l-.965,1.672-1.672-.965.965-1.672Z" transform="translate(-60.895 0)"></path>
    </g>
</svg>