<svg xmlns="http://www.w3.org/2000/svg" width="30.764" height="30.773" viewBox="0 0 30.764 30.773">
    <defs>
        <style>.a{fill:#0d6efd;}</style>
    </defs>
    <path class="a" d="M402.423,0a2.567,2.567,0,0,0-2.564,2.564v27.7a.513.513,0,0,0,.513.513,4.621,4.621,0,0,0,4.616-4.616V21.028a1.542,1.542,0,0,0-1.026-1.451V18.464h.513a.513.513,0,0,0,.513-.513V2.564A2.567,2.567,0,0,0,402.423,0Zm0,1.026a1.539,1.539,0,0,1,1.539,1.539v8.719h-1.539a.513.513,0,0,0,0,1.026h1.539v1.026h-3.077V2.564A1.539,1.539,0,0,1,402.423,1.026Zm1.539,14.361h-3.077V14.361h3.077Zm-.513,5.129a.513.513,0,0,1,.513.513v5.129a3.6,3.6,0,0,1-3.077,3.554V18.464h2.052V20a.513.513,0,0,0,.513.513Zm0-3.077h-2.564V16.412h3.077v1.026Zm0,0" transform="translate(-374.223)"></path>
    <path class="a" d="M432.372,352a.513.513,0,0,0-.513.513v3.077a.513.513,0,0,0,1.026,0v-3.077A.513.513,0,0,0,432.372,352Zm0,0" transform="translate(-404.172 -329.433)"></path>
    <path class="a" d="M18.8,26.05a3.5,3.5,0,0,0-1.163.386l-4.75-13.049a1,1,0,0,0,.426-.3.508.508,0,0,0,.182-.238l2.052-5.639a3.594,3.594,0,0,0-2.146-4.6.513.513,0,0,0-.657.306L11.45,6.453,10.162,2.915A.513.513,0,0,0,9.5,2.607a3.594,3.594,0,0,0-2.146,4.6l2.454,6.743L5.271,26.435a3.5,3.5,0,0,0-1.163-.386,3.59,3.59,0,0,0-1.59,6.981,3.482,3.482,0,0,0,1.026.154,3.7,3.7,0,0,0,3.442-2.473L8.172,27.45l1.446.527a.513.513,0,0,0,.351-.964l-1.446-.527,2.924-8.037,2.923,8.037-1.445.527a.513.513,0,0,0,.35.964l1.446-.526,1.186,3.261a3.7,3.7,0,0,0,3.448,2.473,3.482,3.482,0,0,0,1.026-.154,3.59,3.59,0,0,0-1.59-6.981ZM13.511,3.8a2.569,2.569,0,0,1,1.068,3.063l-1.49,4.094L12,7.955ZM6.024,30.363a2.658,2.658,0,0,1-3.2,1.687,2.564,2.564,0,0,1,1.136-4.986,2.516,2.516,0,0,1,1.245.557.513.513,0,0,0,.808-.22l4.349-11.95.547,1.5Zm15.66.248a2.564,2.564,0,0,1-1.6,1.44,2.659,2.659,0,0,1-3.2-1.688l-1.359-3.735v-.007l0-.007L8.324,6.86A2.569,2.569,0,0,1,9.392,3.8l3.139,8.627a1.026,1.026,0,0,0-.612,1.315L16.894,27.4a.513.513,0,0,0,.808.22,2.515,2.515,0,0,1,1.246-.557,2.564,2.564,0,0,1,2.739,3.546Zm0,0" transform="translate(0.009 -2.411)"></path>
    <path class="a" d="M279.932,401.631a.512.512,0,0,0-.308.657.513.513,0,1,1-.657-.307.513.513,0,1,0-.351-.964,1.539,1.539,0,1,0,1.972.92A.513.513,0,0,0,279.932,401.631Zm0,0" transform="translate(-259.806 -375.276)"></path>
    <path class="a" d="M34.546,401.511a.513.513,0,0,0-.658.308.513.513,0,1,1-.307-.656.513.513,0,1,0,.351-.964,1.539,1.539,0,1,0,.92,1.972.513.513,0,0,0-.307-.66Zm0,0" transform="translate(-29.824 -374.455)"></path>
</svg>