<svg xmlns="http://www.w3.org/2000/svg" width="33.225" height="28.795" viewBox="0 0 33.225 28.795">
    <defs>
        <style>.a{fill:#0d6efd;}</style>
    </defs>
    <path class="a" d="M49.2,62.222l-.525-1.576V59.075a.554.554,0,0,0-.162-.392l-.947-.947a4.3,4.3,0,0,0-1.268-2.929.554.554,0,0,0-.783,0l-.674.674a4.326,4.326,0,0,0-.812,1.127l-.158.316-5.218,1.044h-16a3.322,3.322,0,0,1,0-6.645h4.43a1.661,1.661,0,0,0,0-3.322h-4.43A6.647,6.647,0,0,0,19.7,60.6a4.4,4.4,0,0,0-.381,1.793v5.241l-3.076,2.051A.554.554,0,0,0,16,70.15v6.091a.554.554,0,0,0,.554.554h2.769a.554.554,0,0,0,.554-.554V72.229l2.769-.791v.373a.554.554,0,0,0,.084.294l2.769,4.43a.554.554,0,0,0,.47.26H29.29a.554.554,0,0,0,.47-.847L27.2,71.858l2.346-2.815H32.9l-.8,2.009a.554.554,0,0,0-.04.206v4.984a.554.554,0,0,0,.554.554h2.769a.554.554,0,0,0,.554-.554V72.012l1.45-1.735,4.181,6.271a.554.554,0,0,0,.461.247h3.322a.554.554,0,0,0,.488-.816L42.026,68.9V65.858L44.375,64.1,46.9,64.6a.553.553,0,0,0,.5-.151l1.661-1.661A.554.554,0,0,0,49.2,62.222ZM18.73,58.56a5.537,5.537,0,0,1,3.915-9.452h4.43a.554.554,0,0,1,0,1.107h-4.43a4.43,4.43,0,0,0-1.494,8.6,4.463,4.463,0,0,0-.871.837A5.508,5.508,0,0,1,18.73,58.56Zm7.366,12.9a.554.554,0,0,0-.044.648l2.239,3.583H26.274l-2.522-4.035v-.588a6.442,6.442,0,0,0,2.567-2.022h1.788Zm8.86,0a.554.554,0,0,0-.129.355v3.876H33.166V71.364l.929-2.322h2.7l.055.145Zm11.872-8-2.478-.5a.554.554,0,0,0-.441.1L41.14,65.138a.554.554,0,0,0-.222.443v3.461a.554.554,0,0,0,.066.263l3.437,6.382h-2.1l-4.23-6.345-1.639-4.37-1.037.389.965,2.574H27a6.385,6.385,0,0,0,.633-2.769H26.521a5.342,5.342,0,0,1-3.858,5.115l-3.493,1a.554.554,0,0,0-.4.532v3.876H17.107V70.446L20.183,68.4a.553.553,0,0,0,.245-.438h0V62.4a3.326,3.326,0,0,1,3.322-3.322H38.7a.556.556,0,0,0,.109-.011l5.537-1.108a.554.554,0,0,0,.387-.3l.279-.559a3.222,3.222,0,0,1,.6-.839l.249-.249a3.2,3.2,0,0,1,.587,1.857v.1a.554.554,0,0,0,.162.392l.945.945v1.432a.556.556,0,0,0,.028.175l.446,1.337Z" transform="translate(-16 -48)"></path>
</svg>