<svg xmlns="http://www.w3.org/2000/svg" width="33.287" height="31.756" viewBox="0 0 33.287 31.756">
    <defs>
        <style>.a{fill:#0d6efd;stroke:#0d6efd;stroke-width:0.2px;}</style>
    </defs>
    <g transform="translate(0.1 0.159)">
        <g transform="translate(0 0)">
            <g transform="translate(0 0)">
                <path class="a" d="M33.043,29.157a3.86,3.86,0,0,0-3.269-3.269v-1a4.867,4.867,0,0,0-4.687-5.018A4.885,4.885,0,0,0,20.4,24.736h.032l-.032.006V35.608A6.063,6.063,0,0,1,14.612,41.9a6.065,6.065,0,0,1-5.789-6.295v-.941c.8,0,1.654-.579,1.654-2.206V31.074a7.819,7.819,0,0,0,6.065-7.388v-1.15h-1.1l-.023-7.176a2.76,2.76,0,0,0-2.268-2.7,1.645,1.645,0,1,0-.037,1.124,1.654,1.654,0,0,1,1.2,1.578l.025,7.173h-1.1V23.7a4.385,4.385,0,0,1-3.174,4.114,5.014,5.014,0,0,1-3.033,0A4.382,4.382,0,0,1,3.86,23.7V22.536H2.206V15.368a1.654,1.654,0,0,1,1.224-1.59,1.662,1.662,0,1,0-.034-1.12A2.757,2.757,0,0,0,1.1,15.368v7.168H0v1.147a7.819,7.819,0,0,0,6.065,7.391v1.387c0,1.626.855,2.206,1.654,2.206v.941A7.165,7.165,0,0,0,14.612,43a7.168,7.168,0,0,0,6.892-7.4V24.768a3.773,3.773,0,0,1,3.584-3.8,3.764,3.764,0,0,1,3.584,3.915v1a3.86,3.86,0,1,0,4.371,3.269ZM11.579,13.714a.551.551,0,1,1,.551-.551A.551.551,0,0,1,11.579,13.714Zm-6.617-1.1a.551.551,0,1,1-.551.551A.551.551,0,0,1,4.962,12.611ZM1.1,23.683v-.044H2.757V23.7a5.479,5.479,0,0,0,3.936,5.163,6.135,6.135,0,0,0,3.7,0A5.48,5.48,0,0,0,14.336,23.7v-.063h1.1v.044A6.759,6.759,0,0,1,9.815,30.1a7.865,7.865,0,0,1-2.326.114,7.2,7.2,0,0,1-.761-.115A6.757,6.757,0,0,1,1.1,23.683Zm6.617,9.881c-.5,0-.551-.772-.551-1.1v-1.17c.044.006.089.008.134.012l.165.015c.261.023.524.039.789.039h.028c.265,0,.527-.016.786-.039l.17-.015c.044,0,.089-.007.132-.012v1.17c0,.331-.055,1.1-.551,1.1Zm21.5-1.1A2.757,2.757,0,1,1,31.98,29.7,2.757,2.757,0,0,1,29.223,32.461Z" transform="translate(0 -11.508)"></path>
            </g>
        </g>
        <g transform="translate(27.569 16.542)">
            <path class="a" d="M401.654,251.515a1.654,1.654,0,1,0,1.654,1.654A1.654,1.654,0,0,0,401.654,251.515Zm0,2.206a.551.551,0,1,1,.551-.551A.551.551,0,0,1,401.654,253.721Z" transform="translate(-400 -251.515)"></path>
        </g>
    </g>
</svg>