<svg xmlns="http://www.w3.org/2000/svg" width="32.232" height="25.506" viewBox="0 0 32.232 25.506">
    <defs>
        <style>.a{fill:#0d6efd;}</style>
    </defs>
    <path class="a" d="M318.3,114.049h-7.949a.735.735,0,0,0,0,1.438H318.3a.735.735,0,0,0,0-1.438Z" transform="translate(-289.477 -110.045)"></path>
    <path class="a" d="M315.58,155.691h-5.227a.735.735,0,0,0,0,1.438h5.227a.735.735,0,0,0,0-1.438Z" transform="translate(-289.477 -147.695)"></path>
    <path class="a" d="M80.818,73.5a1.111,1.111,0,0,0-.979-1.206H49.563a1.111,1.111,0,0,0-.977,1.206V96.591a1.113,1.113,0,0,0,.977,1.208H63.439a.735.735,0,0,0,0-1.438H49.751v-10.6H56.69l1.581,2.347a.544.544,0,0,0,.458.259.554.554,0,0,0,.451-.277l1.1-1.751,1.128,2.487a.564.564,0,0,0,.56.365.62.62,0,0,0,.5-.481L64.6,81.127l2.316,11.737a.623.623,0,0,0,.564.549h0a.621.621,0,0,0,.565-.544l1.136-5.585.962,2.759a.6.6,0,0,0,.528.435.588.588,0,0,0,.537-.419l1.6-4.294h6.841v10.6H66.13a.735.735,0,0,0,0,1.438H79.839a1.113,1.113,0,0,0,.979-1.208V73.5Zm-8.38,10.827a.589.589,0,0,0-.529.419L70.7,87.988,69.575,84.76a.582.582,0,0,0-.582-.433.634.634,0,0,0-.518.542L67.493,89.7,65.267,78.414a.63.63,0,0,0-.538-.548.6.6,0,0,0-.578.483l-2.356,8.381-.923-2.036a.587.587,0,0,0-.465-.366.542.542,0,0,0-.5.276l-1.2,1.9-1.292-1.919a.547.547,0,0,0-.448-.26H49.751V73.731h29.9V84.325Z" transform="translate(-48.586 -72.293)"></path>
    <path class="a" d="M92.9,112.745H86.969a1.035,1.035,0,0,0-.909,1.124v3.036a1.035,1.035,0,0,0,.909,1.124H92.9a1.035,1.035,0,0,0,.909-1.124v-3.036A1.035,1.035,0,0,0,92.9,112.745Zm-.257,3.846H87.226v-2.408h5.413Z" transform="translate(-83.148 -108.866)"></path>
</svg>