<svg xmlns="http://www.w3.org/2000/svg" width="31.729" height="33.803" viewBox="0 0 31.729 33.803">
    <defs>
        <style>.a{fill:#0d6efd;}</style>
    </defs>
    <g transform="translate(-15.701)">
        <g transform="translate(22.303 8.318)">
            <g transform="translate(0)">
                <path class="a" d="M116.356,125.994a.66.66,0,1,0,.66.66A.66.66,0,0,0,116.356,125.994Z" transform="translate(-115.696 -125.994)"></path>
            </g>
        </g>
        <g transform="translate(22.963 18.023)">
            <g transform="translate(0)">
                <path class="a" d="M131.638,275.627h-1.98v-1.98a.66.66,0,1,0-1.32,0v1.98h-1.98a.66.66,0,1,0,0,1.32h1.98v1.98a.66.66,0,1,0,1.32,0v-1.98h1.98a.66.66,0,1,0,0-1.32Z" transform="translate(-125.696 -272.986)"></path>
            </g>
        </g>
        <g transform="translate(15.701)">
            <path class="a" d="M46.723,21.258a5.278,5.278,0,0,0-7.214-1.933l-2.682,1.548V15.14a3.325,3.325,0,0,0-.66-1.98l-3.3-4.4V6.884a1.984,1.984,0,0,0,1.32-1.867V1.98A1.983,1.983,0,0,0,32.205,0H20.322a1.983,1.983,0,0,0-1.981,1.98V5.017a1.984,1.984,0,0,0,1.32,1.867V8.758l-3.3,4.4a3.324,3.324,0,0,0-.66,1.98V27.925a3.3,3.3,0,0,0,3.3,3.3h10.61a5.276,5.276,0,0,0,7.174,1.867l8-4.621A5.285,5.285,0,0,0,46.723,21.258ZM19.662,1.98a.661.661,0,0,1,.66-.66H32.205a.661.661,0,0,1,.66.66V5.017a.661.661,0,0,1-.66.66H20.322a.661.661,0,0,1-.66-.66V1.98ZM17.418,13.951,20.85,9.375a.66.66,0,0,0,.132-.4V7H31.545v1.32H25.6a.66.66,0,1,0,0,1.32h6.272l3.235,4.313a2,2,0,0,1,.382.969H17.035A2,2,0,0,1,17.418,13.951ZM19,29.906a1.983,1.983,0,0,1-1.98-1.98v-.667H29.016a5.29,5.29,0,0,0,.032,2.647H19Zm10.532-3.961H17.021v-9.7H35.506v5.395l-4,2.311A5.242,5.242,0,0,0,29.534,25.945Zm6.592,6a3.961,3.961,0,1,1-3.961-6.861l3.583-2.069,3.961,6.861Zm8-4.621-3.277,1.892L36.891,22.36l3.277-1.892a3.961,3.961,0,1,1,3.961,6.86Z" transform="translate(-15.701)"></path>
        </g>
    </g>
</svg>