<svg xmlns="http://www.w3.org/2000/svg" width="32.528" height="32.528" viewBox="0 0 32.528 32.528">
    <defs>
        <style>.a{fill:#0d6efd;}</style>
    </defs>
    <g transform="translate(26.909 15.945)">
        <circle class="a" cx="0.638" cy="0.638" r="0.638"></circle>
    </g>
    <g transform="translate(4.266 15.945)">
        <circle class="a" cx="0.638" cy="0.638" r="0.638"></circle>
    </g>
    <g transform="translate(15.747 27.107)">
        <circle class="a" cx="0.638" cy="0.638" r="0.638"></circle>
    </g>
    <g transform="translate(10.007 11.863)">
        <path class="a" d="M131.177,157.347h-3.918a10.279,10.279,0,0,1,1.735-1.848c1.263-1.157,2.569-2.353,2.569-3.8a2.872,2.872,0,0,0-2.9-2.9,2.961,2.961,0,0,0-3.152,3.151.638.638,0,1,0,1.276,0,1.721,1.721,0,0,1,1.876-1.876,1.614,1.614,0,0,1,1.625,1.625c0,.884-1.145,1.933-2.155,2.858-1.219,1.116-2.369,2.17-2.369,3.427v.638h5.414a.638.638,0,0,0,0-1.276Z" transform="translate(-125.512 -148.8)"></path>
    </g>
    <g transform="translate(16.264 11.799)">
        <path class="a" d="M210.377,154.058H209.1v-5.421a.638.638,0,0,0-1.177-.34l-3.827,6.059a.638.638,0,0,0,.539.978h3.189v1.913a.638.638,0,1,0,1.276,0v-1.913h1.276a.638.638,0,0,0,0-1.276Zm-2.551,0h-2.032l2.032-3.217Z" transform="translate(-203.999 -147.999)"></path>
    </g>
    <g transform="translate(0 0)">
        <g transform="translate(0 0)">
            <path class="a" d="M31.572,15.307a.957.957,0,0,0-.957.957A14.351,14.351,0,1,1,16.264,1.913a14.212,14.212,0,0,1,8.783,3A.957.957,0,0,0,26.22,3.4,16.107,16.107,0,0,0,16.264,0,16.264,16.264,0,1,0,32.528,16.264.957.957,0,0,0,31.572,15.307Z" transform="translate(0 0)"></path>
        </g>
    </g>
    <g transform="translate(21.686 0.274)">
        <path class="a" d="M277.421,3.432a.957.957,0,0,0-.957.957V7.942h-3.508a.957.957,0,0,0,0,1.913h4.465a.957.957,0,0,0,.957-.957V4.389A.957.957,0,0,0,277.421,3.432Z" transform="translate(-272 -3.432)"></path>
    </g>
    <g transform="translate(15.747 4.784)">
        <circle class="a" cx="0.638" cy="0.638" r="0.638"></circle>
    </g>
</svg>