<svg xmlns="http://www.w3.org/2000/svg" width="29.768" height="29.768" viewBox="0 0 29.768 29.768">
    <defs>
        <style>.a{fill:#0d6efd;}</style>
    </defs>
    <g transform="translate(0 0)">
        <path class="a" d="M28.865,28.023h-.872V9.253A3.615,3.615,0,0,0,29.321,4.4L27.355.482A.872.872,0,0,0,26.575,0H3.314a.872.872,0,0,0-.77.463L.4,4.512A3.614,3.614,0,0,0,1.744,9.228v18.8H.872a.872.872,0,0,0,0,1.744H28.865a.872.872,0,0,0,0-1.744ZM3.838,1.744h22.2l1.807,3.595a1.84,1.84,0,0,1,.181.8,1.93,1.93,0,0,1-3.859,0,.872.872,0,1,0-1.744,0,1.93,1.93,0,0,1-3.859,0,.872.872,0,1,0-1.744,0,1.93,1.93,0,0,1-3.859,0,.872.872,0,1,0-1.744,0,1.93,1.93,0,0,1-3.859,0,.872.872,0,1,0-1.744,0,1.93,1.93,0,0,1-3.859,0,1.842,1.842,0,0,1,.221-.881ZM3.488,9.772c.065,0,.13.005.2.005a3.682,3.682,0,0,0,2.8-1.287,3.692,3.692,0,0,0,5.6,0,3.692,3.692,0,0,0,5.6,0,3.692,3.692,0,0,0,5.6,0,3.682,3.682,0,0,0,2.8,1.287c.052,0,.1,0,.155,0v18.25H3.488Z" transform="translate(0 0)"></path>
        <path class="a" d="M112.6,230.4a3.126,3.126,0,0,0-2.839,1.823h-6.542a3.122,3.122,0,1,0-5.393,3.1,3.122,3.122,0,1,0,5.452,2.957h6.424a3.122,3.122,0,1,0,5.452-2.957A3.124,3.124,0,0,0,112.6,230.4Zm.827,5.615a1.377,1.377,0,1,1-2.193,1.278.872.872,0,0,0-.865-.762h-7.759a.872.872,0,0,0-.865.762,1.377,1.377,0,1,1-2.193-1.278.872.872,0,0,0,0-1.393,1.377,1.377,0,1,1,2.179-1.362.872.872,0,0,0,.856.708h7.8a.872.872,0,0,0,.856-.708,1.377,1.377,0,1,1,2.179,1.362.872.872,0,0,0,0,1.393Z" transform="translate(-91.61 -217.004)"></path>
    </g>
</svg>