<svg xmlns="http://www.w3.org/2000/svg" width="32.367" height="28.96" viewBox="0 0 32.367 28.96">
    <defs>
        <style>.a{fill:#0d6efd;stroke:#0d6efd;stroke-width:0.3px;}</style>
    </defs>
    <g transform="translate(0.154 0.253)">
        <path class="a" d="M150.252,269.916a.47.47,0,0,0,.23-.88,5.891,5.891,0,0,1-3.032-4.884.47.47,0,1,0-.938.045,6.825,6.825,0,0,0,3.511,5.659A.468.468,0,0,0,150.252,269.916Z" transform="translate(-137.338 -248.944)"></path>
        <path class="a" d="M195.733,158.219a.47.47,0,0,0,.645.158,5.93,5.93,0,0,1,6.247.073.47.47,0,0,0,.505-.792,6.869,6.869,0,0,0-7.239-.084A.47.47,0,0,0,195.733,158.219Z" transform="translate(-183.414 -148.531)"></path>
        <path class="a" d="M301.145,266.125a5.9,5.9,0,0,1-3.047,4.782.47.47,0,1,0,.455.822,6.837,6.837,0,0,0,3.53-5.54.47.47,0,0,0-.937-.063Z" transform="translate(-279.206 -250.802)"></path>
        <path class="a" d="M99.3,45.14a8.948,8.948,0,0,0-7.893-6.467,8.929,8.929,0,0,0-1.567-10.235A1.555,1.555,0,0,0,87.607,30.6a5.8,5.8,0,0,1,1.234,1.9.47.47,0,1,0,.873-.347,6.73,6.73,0,0,0-1.432-2.21.616.616,0,1,1,.884-.857,7.988,7.988,0,0,1,1.055,9.777.47.47,0,0,0,.4.718h.1A8,8,0,0,1,98.4,45.4a.616.616,0,1,1-1.184.337,6.765,6.765,0,1,0-4.856,8.411.616.616,0,0,1,.3,1.194,7.989,7.989,0,0,1-8.949-3.891.47.47,0,0,0-.819-.007A7.975,7.975,0,0,1,74,55.216a.616.616,0,1,1,.3-1.194A6.764,6.764,0,1,0,72.571,41.6a6.885,6.885,0,0,0-.581.377.47.47,0,0,0,.549.762,5.911,5.911,0,0,1,.5-.325,5.826,5.826,0,1,1,1.492,10.694,1.555,1.555,0,1,0-.759,3.016,8.929,8.929,0,0,0,9.514-3.563,8.914,8.914,0,0,0,9.6,3.685,1.555,1.555,0,1,0-.759-3.016,5.825,5.825,0,1,1,4.182-7.243A1.555,1.555,0,0,0,99.3,45.14Z" transform="translate(-67.3 -27.965)"></path>
        <path class="a" d="M232.257,249.875a1.368,1.368,0,1,0,1.368-1.368A1.369,1.369,0,0,0,232.257,249.875Zm1.8,0a.429.429,0,1,1-.429-.429A.429.429,0,0,1,234.054,249.875Z" transform="translate(-217.715 -234.698)"></path>
        <path class="a" d="M4.109,43.1a.47.47,0,0,0-.661.061,6.721,6.721,0,0,0-1.3,2.47.616.616,0,1,1-1.184-.337,8,8,0,0,1,7.883-5.809.47.47,0,0,0,.415-.711,7.988,7.988,0,0,1,1.124-9.663.616.616,0,1,1,.884.857A6.764,6.764,0,1,0,22.89,34.675a6.883,6.883,0,0,0-.047-.8.47.47,0,1,0-.933.11,5.942,5.942,0,0,1,.04.69A5.825,5.825,0,1,1,11.943,30.62a1.555,1.555,0,0,0-2.232-2.165,8.929,8.929,0,0,0-1.632,10.1A8.947,8.947,0,0,0,.06,45.035a1.555,1.555,0,1,0,2.991.851,5.786,5.786,0,0,1,1.12-2.127.47.47,0,0,0-.061-.661Z" transform="translate(0 -27.982)"></path>
    </g>
</svg>