<svg xmlns="http://www.w3.org/2000/svg" width="53.949" height="53.949" viewBox="0 0 53.949 53.949">
    <defs>
        <style>.a{fill:#fff;}</style>
    </defs>
    <path class="a" d="M-46.051,182.776v2.95a3.26,3.26,0,0,0-.094.456,24.846,24.846,0,0,1-2.453,9.455,26.615,26.615,0,0,1-20.509,15.28c-.809.136-1.629.208-2.444.309H-74.5a3.261,3.261,0,0,0-.458-.094,24.808,24.808,0,0,1-9.5-2.474,26.619,26.619,0,0,1-15.23-20.49c-.135-.808-.207-1.627-.309-2.441v-2.95a3.259,3.259,0,0,0,.093-.455,24.852,24.852,0,0,1,2.453-9.455,26.617,26.617,0,0,1,20.509-15.281c.809-.136,1.629-.207,2.444-.309h2.95a3.31,3.31,0,0,0,.459.094,24.84,24.84,0,0,1,9.454,2.454A26.616,26.616,0,0,1-46.36,180.334C-46.224,181.142-46.152,181.961-46.051,182.776Zm-27-22.99A24.474,24.474,0,0,0-97.49,184.253,24.435,24.435,0,0,0-73,208.715a24.475,24.475,0,0,0,24.444-24.467A24.435,24.435,0,0,0-73.047,159.786Z" transform="translate(100 -157.276)"></path>
    <g transform="translate(15 13.152)">
        <path class="a" d="M3.153-.668A2.905,2.905,0,1,0,3.08,5.126h.036A2.906,2.906,0,1,0,3.153-.668Zm0,0"></path>
        <path class="a" d="M8.109,198.313h5.574v16.768H8.109Zm0,0" transform="translate(-7.78 -190.897)"></path>
        <path class="a" d="M231.812,188.625c-3.007,0-5.023,2.825-5.023,2.825v-2.432h-5.574v16.768h5.573v-9.364a3.82,3.82,0,0,1,.184-1.36,3.051,3.051,0,0,1,2.86-2.038c2.017,0,2.823,1.538,2.823,3.792v8.971h5.573v-9.615c0-5.15-2.75-7.547-6.417-7.547Zm0,0" transform="translate(-212.228 -181.603)"></path>
    </g>
</svg>