<svg xmlns="http://www.w3.org/2000/svg" width="53.949" height="53.949" viewBox="0 0 53.949 53.949">
    <defs>
        <style>.a{fill:#fff;}</style>
    </defs>
    <path class="a" d="M-46.051,182.776v2.95a3.26,3.26,0,0,0-.094.456,24.846,24.846,0,0,1-2.453,9.455,26.615,26.615,0,0,1-20.509,15.28c-.809.136-1.629.208-2.444.309H-74.5a3.261,3.261,0,0,0-.458-.094,24.808,24.808,0,0,1-9.5-2.474,26.619,26.619,0,0,1-15.23-20.49c-.135-.808-.207-1.627-.309-2.441v-2.95a3.259,3.259,0,0,0,.093-.455,24.852,24.852,0,0,1,2.453-9.455,26.617,26.617,0,0,1,20.509-15.281c.809-.136,1.629-.207,2.444-.309h2.95a3.31,3.31,0,0,0,.459.094,24.84,24.84,0,0,1,9.454,2.454A26.616,26.616,0,0,1-46.36,180.334C-46.224,181.142-46.152,181.961-46.051,182.776Zm-27-22.99A24.474,24.474,0,0,0-97.49,184.253,24.435,24.435,0,0,0-73,208.715a24.475,24.475,0,0,0,24.444-24.467A24.435,24.435,0,0,0-73.047,159.786Z" transform="translate(100 -157.276)"></path>
    <path class="a" d="M16.555,284.508c0-2.036-.083-4.077.017-6.108a9.812,9.812,0,0,1,8.555-8.961,15.608,15.608,0,0,1,1.628-.091q4.556-.013,9.113,0a9.891,9.891,0,0,1,9.943,8.529,5.826,5.826,0,0,1,.068.892c0,3.968.085,7.939-.052,11.9a9.757,9.757,0,0,1-8.488,8.9,17.628,17.628,0,0,1-1.785.1q-4.5.014-9.008,0a9.881,9.881,0,0,1-9.939-8.53,11.324,11.324,0,0,1-.092-1.628c-.011-1.668,0-3.336,0-5Zm26.993.021h-.007c0-1.861.031-3.723-.007-5.583a7.381,7.381,0,0,0-6.963-7.194q-5.392-.169-10.793,0a7.359,7.359,0,0,0-6.893,7.1q-.082,5.661,0,11.323a7.369,7.369,0,0,0,6.9,7.088c3.419.115,6.845.051,10.268.056a6.756,6.756,0,0,0,1.2-.109,7.483,7.483,0,0,0,6.285-7.466C43.561,288.005,43.549,286.267,43.549,284.529Z" transform="translate(-4.232 -257.533)"></path>
    <path class="a" d="M99.281,348.98a7.572,7.572,0,1,1-7.59-7.567A7.6,7.6,0,0,1,99.281,348.98Zm-7.569-5.212A5.216,5.216,0,1,0,96.924,349,5.218,5.218,0,0,0,91.711,343.768Z" transform="translate(-64.734 -322.01)"></path>
    <path class="a" d="M213.027,324.97a1.708,1.708,0,0,1,1.729-1.727,1.725,1.725,0,0,1,1.729,1.738,1.767,1.767,0,0,1-1.714,1.717A1.739,1.739,0,0,1,213.027,324.97Z" transform="translate(-180.043 -305.755)"></path>
</svg>