<?xml version="1.0" encoding="UTF-8"?> <svg xmlns="http://www.w3.org/2000/svg" width="173.999" height="52.322" viewBox="0 0 173.03 52.031"><defs><style> .cls-1 { fill: #232323; } .cls-1, .cls-2, .cls-3 { fill-rule: evenodd; } .cls-2 { fill: #232323; } .cls-3 { fill: #f6ab4a; } </style></defs><path class="cls-1" d="M916.742,110.692H916.33q-11.859,0-23.718-.009a0.588,0.588,0,0,0-.691.5,8.049,8.049,0,0,1-15.44.1,8.6,8.6,0,0,1,1.825-8.768c0.044-.05.09-0.1,0.13-0.152a0.628,0.628,0,0,0,.05-0.127,7.247,7.247,0,0,1-1.266-3.2,6.821,6.821,0,0,1,6.954-7.928,6.363,6.363,0,0,1,5.414,3.576,8.684,8.684,0,0,1,.58,1.8,9.286,9.286,0,0,0,1.392,2.493c0.062,0.1.129,0.191,0.231,0.34-0.85,0-1.65.044-2.442-.016a0.889,0.889,0,0,1-.737-1.085,4.923,4.923,0,0,0-1.021-3.275,4.5,4.5,0,0,0-4.8-1.817,4.67,4.67,0,0,0-3.674,3.776,5.033,5.033,0,0,0,1.217,4.65,1.023,1.023,0,0,1-.141,1.734,6.784,6.784,0,0,0,1.9,11.436,6.275,6.275,0,0,0,8.1-4.131c0.1-.318.166-0.645,0.235-0.97a0.985,0.985,0,0,1,1.043-.885c0.135-.006.27,0,0.4,0h25.235c1.1,0,1.272.133,1.5,1.183a6.282,6.282,0,0,0,12.337.16,6.608,6.608,0,0,0-2.682-7.184,1,1,0,0,1-.166-1.6,5.219,5.219,0,0,0,.279-6.123,4.729,4.729,0,0,0-4.991-2.06,4.975,4.975,0,0,0-3.714,4.047,10.537,10.537,0,0,0-.074,1.193,0.878,0.878,0,0,1-.771.961c-0.7.052-1.4,0.013-2.024,0.013,0.517-1,1.079-1.981,1.533-3.008a17.314,17.314,0,0,0,.512-1.869,2.368,2.368,0,0,1,.416-0.777,6.23,6.23,0,0,1,6.326-2.454A6.438,6.438,0,0,1,930.7,95.83a6.907,6.907,0,0,1-.527,5.655,0.433,0.433,0,0,0,.095.63,8.772,8.772,0,0,1-.329,12.974,7.911,7.911,0,0,1-11.719-1.575A27.828,27.828,0,0,1,916.742,110.692ZM904.223,98.61c-0.119.205-.2,0.345-0.279,0.484a5.166,5.166,0,0,1-5.286,2.676,8.82,8.82,0,0,1-7.861-6.739,2.935,2.935,0,0,1-.1-0.489,0.921,0.921,0,0,1,.717-1.053,0.866,0.866,0,0,1,1.048.707,8.368,8.368,0,0,0,1.445,3.054,6.575,6.575,0,0,0,5.568,2.624,3.275,3.275,0,0,0,3.052-2.029,10.2,10.2,0,0,0,.766-4.931A0.5,0.5,0,0,0,903,92.588a7.657,7.657,0,0,1-4.83-6.068,3.08,3.08,0,0,1,1.279-2.891c2.356-2.1,7.155-2.1,9.525-.014a3.378,3.378,0,0,1,1.063,3.968,7.6,7.6,0,0,1-3.962,4.7,1.252,1.252,0,0,0-.923,1.531,27.381,27.381,0,0,0,.37,2.909c0.664,2.574,2.34,3.561,4.97,3.025a6.884,6.884,0,0,0,5.409-5.215c0.261-.849.605-1.18,1.2-1.034,0.571,0.142.781,0.678,0.581,1.482A8.818,8.818,0,0,1,909.2,101.8a5.081,5.081,0,0,1-4.7-2.746C904.427,98.924,904.345,98.8,904.223,98.61Zm1.966-10.694a2.612,2.612,0,0,0,1.419-.5,1.882,1.882,0,0,0,.85-1.207,1.7,1.7,0,0,0-.746-1.572,2.819,2.819,0,0,0-3.33.135,1.638,1.638,0,0,0-.595,1.247,1.769,1.769,0,0,0,.621,1.231A2.551,2.551,0,0,0,906.189,87.916Zm1.287-10.786a6.148,6.148,0,0,1,1.376-4.346,4.684,4.684,0,0,1,6.025-.812,7.478,7.478,0,0,1,3.241,8.891A4.712,4.712,0,0,1,910.9,83.05,7.321,7.321,0,0,1,907.476,77.13Zm6.252,4.811a2.737,2.737,0,0,0,2.855-2.2,5.628,5.628,0,0,0-2.767-6.205,2.924,2.924,0,0,0-4.318,1.778,4.883,4.883,0,0,0,.074,3.092c0.136,0.412.346,0.8,0.523,1.2l0.147-.033a3.281,3.281,0,0,1,.74-2.793,2.618,2.618,0,0,1,2.806-.828c-0.27.98-.533,1.936-0.836,3.037l2.371-1.834a3.1,3.1,0,0,1,.456,2.362A3.221,3.221,0,0,1,913.728,81.941Zm-18.717,1.581a4.729,4.729,0,0,1-4.567-3.817,7.568,7.568,0,0,1,3.49-8.135,4.752,4.752,0,0,1,7.2,3.055,7.54,7.54,0,0,1-3.566,8.231A4.959,4.959,0,0,1,895.011,83.523Zm4.035-5.052a4.994,4.994,0,0,0,.471-2.565c-0.194-2.756-2.732-4.044-4.984-2.491a5.5,5.5,0,0,0-2.456,4.937,3.412,3.412,0,0,0,1.247,2.685,1.951,1.951,0,0,0,1.66.473,3.3,3.3,0,0,1-1.535-2.053,3.208,3.208,0,0,1,.421-2.511l2.245,1.739,0.085-.079q-0.39-1.414-.78-2.827a2.359,2.359,0,0,1,1.8.071A3.272,3.272,0,0,1,899.046,78.47Zm-1.152-11.557a3.568,3.568,0,0,0-2.869,1.435,11.654,11.654,0,0,0-1.048,1.58,0.942,0.942,0,0,1-1.2.534,0.919,0.919,0,0,1-.493-1.218c1-2.083,2.385-3.752,4.832-4.209a4.883,4.883,0,0,1,1.059-.026,0.958,0.958,0,1,1-.077,1.9h-0.2ZM909.73,65a5.55,5.55,0,0,1,4.4,2.464,11.327,11.327,0,0,1,.974,1.572,0.935,0.935,0,1,1-1.647.83,13.956,13.956,0,0,0-1.565-2.061,2.831,2.831,0,0,0-2.385-.885,0.978,0.978,0,0,1-1.222-.928A1,1,0,0,1,909.477,65C909.561,65,909.645,65,909.73,65Z" transform="translate(-876 -65)"></path><path id="Frizty" class="cls-2" d="M949.34,91.807a2.237,2.237,0,0,0,1.673-.63,2.336,2.336,0,0,0,.618-1.71v-6.75h7.327a2.619,2.619,0,0,0,1.689-.45,1.689,1.689,0,0,0,.543-1.38,1.728,1.728,0,0,0-.543-1.41,2.619,2.619,0,0,0-1.689-.45h-7.327v-4.86h7.93a2.619,2.619,0,0,0,1.689-.45,1.689,1.689,0,0,0,.543-1.38,1.728,1.728,0,0,0-.543-1.41,2.619,2.619,0,0,0-1.689-.45H949.189a2.208,2.208,0,0,0-1.628.57,2.185,2.185,0,0,0-.573,1.62v16.8a2.285,2.285,0,0,0,.648,1.7,2.309,2.309,0,0,0,1.7.645h0Zm32.323-3.15-2.292-3.42A6.056,6.056,0,0,0,978,83.722a3.977,3.977,0,0,0-1.613-.7,6.52,6.52,0,0,0,3.829-2.13,6.091,6.091,0,0,0,1.357-4.05,5.87,5.87,0,0,0-1.915-4.725A8.5,8.5,0,0,0,974,70.477h-7.568a2.208,2.208,0,0,0-1.628.57,2.181,2.181,0,0,0-.573,1.62v16.8a2.3,2.3,0,0,0,.633,1.71,2.329,2.329,0,0,0,1.719.63,2.237,2.237,0,0,0,1.673-.63,2.336,2.336,0,0,0,.618-1.71v-6.06h2.442a2.772,2.772,0,0,1,1.448.345,3.569,3.569,0,0,1,1.085,1.125l3.98,5.88a2.261,2.261,0,0,0,.905.84,2.527,2.527,0,0,0,2.7-.27,1.686,1.686,0,0,0,.679-1.38,2.288,2.288,0,0,0-.452-1.29h0Zm-8.353-8.79h-4.492v-5.82h4.492a4.874,4.874,0,0,1,2.925.69,3.157,3.157,0,0,1,0,4.425,4.792,4.792,0,0,1-2.925.7h0Zm14.413,11.94a2.328,2.328,0,0,0,1.718-.63,2.3,2.3,0,0,0,.634-1.71V72.637a2.261,2.261,0,0,0-.634-1.68,2.659,2.659,0,0,0-3.437,0,2.265,2.265,0,0,0-.633,1.68v16.83a2.3,2.3,0,0,0,.633,1.71,2.329,2.329,0,0,0,1.719.63h0Zm20.017-3.87h-8.831l10.071-13.83a2.792,2.792,0,0,0,.57-1.68,1.859,1.859,0,0,0-.56-1.4,2,2,0,0,0-1.49-.555h-12a2.619,2.619,0,0,0-1.689.45,1.728,1.728,0,0,0-.543,1.41,1.689,1.689,0,0,0,.543,1.38,2.619,2.619,0,0,0,1.689.45h8.378L993.843,88a2.779,2.779,0,0,0-.6,1.68,1.886,1.886,0,0,0,.558,1.395,2.022,2.022,0,0,0,1.493.555h12.449a2.607,2.607,0,0,0,1.69-.45,1.732,1.732,0,0,0,.54-1.41,1.7,1.7,0,0,0-.54-1.38,2.607,2.607,0,0,0-1.69-.45h0Zm12.21,3.84a2.319,2.319,0,0,0,1.72-.63,2.238,2.238,0,0,0,.64-1.68V74.287h4.88c1.49,0,2.23-.64,2.23-1.92,0-1.26-.74-1.89-2.23-1.89h-14.47c-1.49,0-2.23.63-2.23,1.89,0,1.28.74,1.92,2.23,1.92h4.88v15.18a2.244,2.244,0,0,0,.65,1.68,2.334,2.334,0,0,0,1.7.63h0Zm25.3-20.7-5.76,6.99-5.76-6.99a1.988,1.988,0,0,0-1.56-.78,2.074,2.074,0,0,0-1.5.645,2.036,2.036,0,0,0-.64,1.485,1.98,1.98,0,0,0,.57,1.41l6.54,7.8v7.83a2.232,2.232,0,0,0,.66,1.74,2.485,2.485,0,0,0,1.72.6,2.367,2.367,0,0,0,1.66-.6,2.232,2.232,0,0,0,.66-1.74v-7.83l6.61-7.8a2.123,2.123,0,0,0,.57-1.41,2.005,2.005,0,0,0-.68-1.485,2.152,2.152,0,0,0-1.52-.645,2.007,2.007,0,0,0-1.57.78h0Z" transform="translate(-876 -65)"></path><path id="Pets_STORE" data-name="Pets STORE" class="cls-3" d="M950.207,108.162a3.345,3.345,0,0,0,2.221-.669,2.317,2.317,0,0,0,.793-1.872,2.4,2.4,0,0,0-.81-1.889,3.189,3.189,0,0,0-2.187-.714H947.08v8.176h1.428v-3.032h1.7Zm-1.7-4h1.755a1.568,1.568,0,0,1,1.118.407,1.41,1.41,0,0,1,.406,1.058,1.308,1.308,0,0,1-.4,1.031,1.7,1.7,0,0,1-1.163.356h-1.716v-2.852Zm14.174,2.257h-3.375v-2.257h3.906v-1.146H957.88v8.176h5.372V110.06h-3.945v-2.516h3.375v-1.123Zm11.194-3.4h-6.518v1.146h2.54v7.03h1.416v-7.03h2.562v-1.146Zm8.319,6.865a1.767,1.767,0,0,1-1.12.3,2.029,2.029,0,0,1-1.326-.382,1.316,1.316,0,0,1-.463-1.078h-1.428a2.251,2.251,0,0,0,.415,1.348,2.747,2.747,0,0,0,1.162.907,4.034,4.034,0,0,0,1.64.328,3.43,3.43,0,0,0,2.136-.6,1.943,1.943,0,0,0,.787-1.626,2.154,2.154,0,0,0-.271-1.1,2.444,2.444,0,0,0-.852-0.831,6.364,6.364,0,0,0-1.54-.645,4.841,4.841,0,0,1-1.378-.584,0.9,0.9,0,0,1-.417-0.75,0.989,0.989,0,0,1,.386-0.831,1.744,1.744,0,0,1,1.087-.3,1.673,1.673,0,0,1,1.154.362,1.28,1.28,0,0,1,.4,1h1.423a2.287,2.287,0,0,0-.384-1.289,2.518,2.518,0,0,0-1.055-.9,3.579,3.579,0,0,0-1.53-.314,3.286,3.286,0,0,0-2.1.64,1.99,1.99,0,0,0-.81,1.629,2.1,2.1,0,0,0,1.123,1.83,6.687,6.687,0,0,0,1.58.663,4.614,4.614,0,0,1,1.375.589,0.988,0.988,0,0,1,.38.831A0.967,0.967,0,0,1,982.2,109.883Zm16.271,0a1.772,1.772,0,0,1-1.121.3,2.033,2.033,0,0,1-1.326-.382,1.319,1.319,0,0,1-.463-1.078h-1.427a2.257,2.257,0,0,0,.414,1.348,2.75,2.75,0,0,0,1.163.907,4.029,4.029,0,0,0,1.639.328,3.431,3.431,0,0,0,2.137-.6,1.937,1.937,0,0,0,.788-1.626,2.145,2.145,0,0,0-.272-1.1,2.462,2.462,0,0,0-.852-0.831,6.373,6.373,0,0,0-1.541-.645,4.819,4.819,0,0,1-1.377-.584,0.9,0.9,0,0,1-.418-0.75,0.988,0.988,0,0,1,.387-0.831,1.742,1.742,0,0,1,1.086-.3,1.672,1.672,0,0,1,1.154.362,1.28,1.28,0,0,1,.4,1h1.419a2.246,2.246,0,0,0-.381-1.289,2.506,2.506,0,0,0-1.055-.9,3.574,3.574,0,0,0-1.529-.314,3.289,3.289,0,0,0-2.1.64,1.989,1.989,0,0,0-.809,1.629,2.1,2.1,0,0,0,1.123,1.83,6.687,6.687,0,0,0,1.58.663,4.6,4.6,0,0,1,1.374.589,0.986,0.986,0,0,1,.381.831A0.967,0.967,0,0,1,998.466,109.883Zm12.4-6.865h-6.52v1.146h2.54v7.03h1.42v-7.03h2.56v-1.146Zm10.89,3.847a4.919,4.919,0,0,0-.43-2.1,3.125,3.125,0,0,0-1.2-1.381,3.521,3.521,0,0,0-3.56.006,3.147,3.147,0,0,0-1.2,1.4,4.864,4.864,0,0,0-.43,2.111v0.46a4.99,4.99,0,0,0,.43,2.072,3.248,3.248,0,0,0,1.21,1.385,3.527,3.527,0,0,0,3.57,0,3.132,3.132,0,0,0,1.19-1.393,4.966,4.966,0,0,0,.42-2.108v-0.455Zm-1.43.455a3.617,3.617,0,0,1-.51,2.1,1.83,1.83,0,0,1-2.92-.017,3.547,3.547,0,0,1-.53-2.083v-0.472a3.571,3.571,0,0,1,.53-2.041,1.691,1.691,0,0,1,1.45-.722,1.712,1.712,0,0,1,1.47.725,3.592,3.592,0,0,1,.51,2.083v0.427Zm10.93,3.874h1.53v-0.073l-1.85-3.4a2.475,2.475,0,0,0,1.11-.852,2.571,2.571,0,0,0-.37-3.212,3.394,3.394,0,0,0-2.2-.635h-2.89v8.176h1.43v-3.145h1.59Zm-3.24-7.03h1.51a1.61,1.61,0,0,1,1.12.37,1.341,1.341,0,0,1,.37,1.017,1.26,1.26,0,0,1-.4.991,1.644,1.644,0,0,1-1.13.362h-1.47v-2.74Zm14,2.257h-3.37v-2.257h3.9v-1.146h-5.33v8.176h5.37V110.06h-3.94v-2.516h3.37v-1.123Z" transform="translate(-876 -65)"></path></svg> 