<?xml version="1.0" encoding="utf-8"?>
<!-- Generator: Adobe Illustrator 23.0.0, SVG Export Plug-In . SVG Version: 6.00 Build 0)  -->
<svg version="1.1" id="Capa_1" xmlns="http://www.w3.org/2000/svg" xmlns:xlink="http://www.w3.org/1999/xlink" x="0px" y="0px"
	 viewBox="0 0 418.7 127.8" style="enable-background:new 0 0 418.7 127.8;" xml:space="preserve">
<style type="text/css">
	.st0{fill:#262E3B;}
	.st1{fill:#D06727;}
	.st2{fill:#08080A;}
</style>
<g>
	<path class="st0" d="M59.1,92.1c-1.9,0.6-3.9,1-5.9,1.2l0,0.1l-1.8,0.1c-7.9,0.3-15.3-2.5-21.1-7.9c-5.7-5.4-9-12.6-9.2-20.4
		c-0.3-7.8,2.6-15.3,7.9-21c0.4-0.4,0.8-0.8,1.2-1.2c0.1-0.1,0.1-0.1,0.2-0.2l0,0c0,0,0.1-0.1,0.1-0.1l0,0c0.1-0.1,0.2-0.2,0.3-0.2
		c0.1-0.1,0.2-0.1,0.2-0.2c0.1-0.1,0.2-0.2,0.4-0.3c0.1-0.1,0.1-0.1,0.2-0.2c0.1-0.1,0.2-0.2,0.3-0.3c0.1-0.1,0.1-0.1,0.2-0.1
		c0.1-0.1,0.2-0.2,0.3-0.3c0.1,0,0.1-0.1,0.2-0.2c0.1,0,0.1-0.1,0.2-0.1c0.1-0.1,0.2-0.1,0.2-0.2c0.1-0.1,0.2-0.1,0.2-0.2
		c0.1-0.1,0.2-0.1,0.3-0.2c0.7-0.5,1.4-0.9,2.1-1.3l0,0c0.1-0.1,0.2-0.1,0.3-0.2c0.1,0,0.2-0.1,0.2-0.1c0.5-0.3,1-0.5,1.4-0.7
		c0.1,0,0.1-0.1,0.2-0.1c0.1,0,0.2-0.1,0.2-0.1c0.1,0,0.2-0.1,0.3-0.1c0.1,0,0.2-0.1,0.3-0.1l0,0c0.1-0.1,0.2-0.1,0.4-0.2
		c0.1,0,0.2-0.1,0.3-0.1c1.6-0.7,3.3-1.2,5.1-1.5l0.3-0.1c0.2,0,0.4-0.1,0.6-0.1c0.1,0,0.2,0,0.3,0c0.2,0,0.4-0.1,0.6-0.1
		c0.1,0,0.2,0,0.4,0c0.1,0,0.2,0,0.4,0c0.1,0,0.2,0,0.4,0c10.7-1,46-0.6,46.2-0.6l3.3-4.8c-2.7,0-35.3,0-46.7,0.5
		c-2.1,0.1-3.7,0.2-4.5,0.3c-7.3,0.8-15,5-20.1,10.5c-6.2,6.7-9.5,15.3-9.2,24.5C16.5,74.3,20.3,82.8,27,89
		c6.7,6.3,15.4,9.5,24.5,9.2c2.6-0.1,5.2-0.5,7.7-1.1L59.1,92.1z"/>
	<path class="st0" d="M90.5,40.6"/>
	<polygon class="st0" points="71,98.5 71,98.5 68.6,94.4 49.7,61.5 44.9,61.5 66.2,98.5 66.2,98.5 66.3,98.5 71,98.5 	"/>
	<polygon class="st0" points="90.2,98.5 90.2,98.5 87.8,94.4 85.4,90.2 83,86.1 80.6,81.9 78.2,77.8 68.8,61.5 64,61.5 75.8,81.9 
		78.2,86.1 80.6,90.2 83,94.4 85.4,98.5 85.4,98.5 85.4,98.5 90.2,98.5 	"/>
	<polygon class="st0" points="97.4,94.4 95,90.2 92.6,86.1 90.2,81.9 87.8,77.8 85.4,73.6 83,69.5 78.4,61.5 73.6,61.5 80.6,73.6 
		85.4,81.9 87.8,86.1 90.2,90.2 92.6,94.4 95,98.5 95,98.5 95,98.5 99.8,98.5 99.8,98.5 99.8,98.5 	"/>
	<polygon class="st1" points="107.7,35 102.4,35 84.9,65.3 87.8,69.4 	"/>
	<polygon class="st0" points="75.8,98.5 80.6,98.5 80.6,98.5 80.6,98.5 78.2,94.4 75.8,90.2 73.4,86.1 59.2,61.5 54.4,61.5 71,90.2 
		73.4,94.4 75.8,98.5 75.8,98.5 	"/>
	<polygon class="st1" points="92.6,77.7 117.3,35 112.5,35 90.2,73.6 90.2,73.6 	"/>
	<polygon class="st1" points="97.4,86 126.8,35 122.1,35 95,81.9 95,81.9 	"/>
	<polygon class="st1" points="136.4,35 131.6,35 99.8,90.2 99.8,90.2 102.2,94.3 	"/>
	<path class="st1" d="M57.9,85.7c-1.6,0.5-3.2,0.8-4.8,1l0,0l-1.4,0c-6.4,0.2-11.4-1.1-16.1-5.4C31,77,28.3,71.1,28.1,64.8
		c-0.2-6.3,1.1-11.4,5.4-16c0.3-0.3,0.7-0.7,1-1c0,0,0.1-0.1,0.1-0.1l0,0c0,0,0.1-0.1,0.1-0.1l0,0c0.1-0.1,0.1-0.1,0.2-0.2
		c0.1-0.1,0.1-0.1,0.2-0.2c0.1-0.1,0.2-0.2,0.3-0.3c0.1,0,0.1-0.1,0.2-0.2c0.1-0.1,0.2-0.1,0.3-0.2c0.1,0,0.1-0.1,0.2-0.1
		c0.1-0.1,0.2-0.1,0.3-0.2c0.1,0,0.1-0.1,0.2-0.1c0,0,0.1-0.1,0.1-0.1c0.1,0,0.1-0.1,0.2-0.2c0.1,0,0.1-0.1,0.2-0.1
		c0.1-0.1,0.2-0.1,0.2-0.2c0.5-0.4,1.1-0.7,1.7-1.1l0,0c0.1,0,0.2-0.1,0.2-0.1c0.1,0,0.1-0.1,0.2-0.1c0.4-0.2,0.8-0.4,1.2-0.6
		c0.1,0,0.1-0.1,0.2-0.1c0.1,0,0.1-0.1,0.2-0.1c0.1,0,0.2-0.1,0.2-0.1c0.1,0,0.1-0.1,0.2-0.1l0,0c0.1,0,0.2-0.1,0.3-0.1
		c0.1,0,0.1-0.1,0.2-0.1c1.3-0.5,2.7-0.9,4.1-1.2l0.2,0c0.2,0,0.3-0.1,0.5-0.1c0.1,0,0.2,0,0.2,0c0.2,0,0.3-0.1,0.5-0.1
		c0.1,0,0.2,0,0.3,0c0.1,0,0.2,0,0.3,0c0.1,0,0.2,0,0.3,0c8.6-0.8,41.1-0.5,41.3-0.5l3.3-4.9c-2.2-0.1-33.1,0-42.3,0.4
		c-1.7,0.1-3,0.1-3.7,0.2c-6,0.7-12.1,4-16.3,8.5c-5.1,5.4-7.7,12.4-7.5,19.8c0.2,7.4,3.3,14.2,8.7,19.3c5.4,5.1,12.5,7.7,19.9,7.5
		c2.1-0.1,4.2-0.4,6.2-0.9L57.9,85.7z"/>
</g>
<g>
	<path class="st2" d="M165.7,35c2.4,0,4.4,0.3,6.2,0.9c1.8,0.6,3.3,1.4,4.5,2.5s2.2,2.4,2.9,3.8c0.7,1.5,1.2,3.1,1.3,4.8l0.1,0.5
		h-5.7l-0.1-0.5c-0.5-2.4-1.5-4.3-3-5.7c-1.5-1.4-3.7-2.1-6.4-2.1c-1.7,0-3.2,0.3-4.5,1c-1.3,0.7-2.5,1.6-3.4,2.8s-1.7,2.7-2.2,4.4
		c-0.5,1.7-0.8,3.6-0.8,5.7c0,2.2,0.3,4.1,0.8,5.9c0.5,1.7,1.2,3.2,2.2,4.4c0.9,1.2,2.1,2.2,3.4,2.8s2.8,1,4.4,1
		c2.7,0,4.8-0.7,6.4-2.1c1.5-1.4,2.5-3.3,3-5.7l0.1-0.5h5.7l-0.1,0.5c-0.2,1.7-0.6,3.3-1.4,4.8c-0.7,1.5-1.8,2.8-3.1,3.9
		c-1.3,1.1-2.8,2-4.7,2.6c-1.8,0.6-3.9,0.9-6.3,0.9c-2.6,0-4.9-0.4-6.9-1.3s-3.8-2.1-5.2-3.7c-1.4-1.6-2.5-3.5-3.3-5.7
		c-0.8-2.2-1.1-4.7-1.1-7.4c0-2.8,0.4-5.3,1.3-7.5c0.9-2.3,2-4.2,3.5-5.8c1.5-1.6,3.3-2.9,5.4-3.7C160.9,35.5,163.2,35,165.7,35z"/>
	<path class="st2" d="M193,59.3l-3.9,11.6H183L196,35.7h7.4L216,70.9h-6.2l-3.9-11.6H193z M204.3,54.9l-4.8-14.5l-5,14.5H204.3z"/>
	<path class="st2" d="M237.3,35.9c2.1,0.2,4,0.8,5.8,1.6c1.8,0.8,3.3,1.9,4.6,3.3c1.3,1.4,2.3,3.1,3,5.1c0.7,2,1.1,4.4,1.1,7
		c0,2.6-0.4,5-1.1,7.1c-0.7,2.1-1.8,3.9-3.1,5.4c-1.3,1.5-2.9,2.7-4.7,3.6c-1.8,0.9-3.7,1.5-5.8,1.8c-0.9,0.1-1.7,0.2-2.2,0.2
		c-0.6,0-1.4,0-2.3,0H221V35.7h11.6c1,0,1.8,0,2.3,0C235.6,35.8,236.3,35.8,237.3,35.9z M236.1,66.2c2.9-0.4,5.2-1.8,7-4
		c1.7-2.3,2.6-5.4,2.6-9.3c0-3.7-0.8-6.6-2.5-8.7c-1.7-2.1-4-3.4-6.8-3.8c-0.6-0.1-1.2-0.2-1.9-0.2c-0.6,0-1.4-0.1-2.3-0.1h-5.4
		v26.3h5.2c0.9,0,1.7,0,2.3,0C234.9,66.4,235.5,66.3,236.1,66.2z"/>
	<path class="st2" d="M258.6,70.9V35.7h5.7v35.2H258.6z"/>
	<path class="st2" d="M284.6,35c2,0,3.7,0.3,5.2,0.8c1.5,0.6,2.8,1.3,3.8,2.3c1,1,1.9,2.1,2.5,3.4c0.6,1.3,1,2.7,1.1,4.3h-6
		c-0.2-2-0.9-3.6-2.1-4.7c-1.2-1.1-2.8-1.7-4.9-1.7c-1.7,0-3.1,0.4-4.3,1.2c-1.2,0.8-1.7,2-1.7,3.7c0,1.7,0.6,3,1.8,3.9
		c1.2,0.9,3.2,1.7,6,2.3c4,0.9,7,2.2,8.8,3.9c1.9,1.7,2.8,4.1,2.8,7c0,1.6-0.3,3-1,4.3s-1.6,2.3-2.8,3.2c-1.2,0.9-2.5,1.6-4.1,2
		c-1.5,0.5-3.2,0.7-4.9,0.7c-4.1,0-7.5-0.9-9.9-2.8c-2.5-1.9-3.9-4.6-4.3-8.2h6c0.5,2.2,1.5,3.8,2.9,4.9s3.3,1.7,5.4,1.7
		c1.9,0,3.5-0.5,4.8-1.4c1.3-0.9,2-2.2,2-3.8c0-1.8-0.6-3.3-1.8-4.3c-1.2-1.1-3.3-1.9-6.2-2.5c-1.7-0.4-3.3-0.9-4.7-1.4
		c-1.4-0.5-2.6-1.2-3.6-2c-1-0.8-1.8-1.7-2.3-2.9c-0.5-1.1-0.8-2.4-0.8-3.9c0-1.6,0.3-3,1-4.2c0.7-1.2,1.6-2.3,2.7-3.2
		c1.1-0.9,2.5-1.5,4-2C281.3,35.3,282.9,35,284.6,35z"/>
	<path class="st2" d="M313.4,70.9l-12.6-35.2h6.2l10.2,30.9l10.4-30.9h6.1l-12.9,35.2H313.4z"/>
	<path class="st2" d="M363,70.9h-24.9V35.7h24.4v4.4h-18.6v11H361v4.4h-17.2v10.9H363V70.9z"/>
	<path class="st2" d="M384.3,40.1v30.8h-5.7V40.1H366v-4.4h30.9v4.4H384.3z"/>
</g>
<g>
	<path class="st0" d="M154.6,86.1v1.7c-0.3-0.2-0.6-0.3-0.8-0.3c-0.3,0-0.6,0.1-0.8,0.3c-0.2,0.2-0.4,0.5-0.5,1
		c-0.1,0.4-0.2,1-0.3,1.7s-0.1,1.5-0.1,2.4c0,3.4,0.6,5.1,1.8,5.1c0.2,0,0.5-0.1,0.8-0.3v1.7c-0.3,0.2-0.7,0.4-1,0.4
		c-1.9,0-2.9-2.3-2.9-6.8c0-2.5,0.2-4.3,0.7-5.5c0.5-1.2,1.2-1.8,2.2-1.8C153.9,85.6,154.2,85.8,154.6,86.1z"/>
	<path class="st0" d="M159.2,90.4v9.2h-1.2v-1.2c-0.2,0.5-0.3,0.9-0.5,1c-0.2,0.2-0.4,0.3-0.7,0.3c-0.5,0-0.9-0.4-1.2-1.2
		c-0.2-0.8-0.4-2-0.4-3.7c0-1.6,0.1-2.8,0.4-3.5c0.2-0.7,0.6-1.1,1.2-1.1c0.5,0,0.9,0.4,1.2,1.2v-1H159.2z M156.6,94.9
		c0,1.2,0.1,2.1,0.2,2.5c0.1,0.5,0.3,0.7,0.6,0.7c0.3,0,0.5-0.2,0.6-0.7c0.1-0.5,0.2-1.4,0.2-2.5c0-1.1-0.1-1.9-0.2-2.5
		c-0.1-0.5-0.3-0.7-0.6-0.7c-0.3,0-0.5,0.2-0.6,0.7C156.6,92.9,156.6,93.7,156.6,94.9z M158.8,86.5l-1.3,2.5l-0.6-0.5l1-2.7
		L158.8,86.5z"/>
	<path class="st0" d="M160.6,90.4h1.2v1.1c0.3-0.9,0.8-1.3,1.3-1.3c0.6,0,1,0.4,1.2,1.3c0.3-0.9,0.8-1.3,1.3-1.3
		c0.5,0,0.8,0.2,1,0.5c0.2,0.3,0.4,0.8,0.4,1.5v7.3h-1.2v-6c0-0.7,0-1.2-0.1-1.4c-0.1-0.2-0.3-0.4-0.5-0.4c-0.3,0-0.5,0.1-0.6,0.4
		c-0.1,0.2-0.1,0.7-0.1,1.4v6h-1.2v-6c0-0.3,0-0.6,0-0.8s-0.1-0.4-0.1-0.5s-0.1-0.2-0.2-0.3c-0.1-0.1-0.2-0.1-0.3-0.1
		c-0.3,0-0.5,0.1-0.6,0.4c-0.1,0.3-0.2,0.7-0.2,1.4v6h-1.2V90.4z"/>
	<path class="st0" d="M172,90.4v9.2h-1.2v-1.2c-0.2,0.5-0.3,0.9-0.5,1c-0.2,0.2-0.4,0.3-0.7,0.3c-0.5,0-0.9-0.4-1.2-1.2
		c-0.2-0.8-0.4-2-0.4-3.7c0-1.6,0.1-2.8,0.4-3.5c0.2-0.7,0.6-1.1,1.2-1.1c0.5,0,0.9,0.4,1.2,1.2v-1H172z M169.3,94.9
		c0,1.2,0.1,2.1,0.2,2.5c0.1,0.5,0.3,0.7,0.6,0.7c0.3,0,0.5-0.2,0.6-0.7c0.1-0.5,0.2-1.4,0.2-2.5c0-1.1-0.1-1.9-0.2-2.5
		c-0.1-0.5-0.3-0.7-0.6-0.7c-0.3,0-0.5,0.2-0.6,0.7C169.4,92.9,169.3,93.7,169.3,94.9z"/>
	<path class="st0" d="M173.3,90.4h1.2v1.1c0.2-0.5,0.4-0.8,0.6-1c0.2-0.2,0.5-0.3,0.8-0.3v1.8c-0.1,0-0.2,0-0.2,0
		c-0.4,0-0.7,0.2-0.9,0.5c-0.2,0.3-0.3,0.8-0.3,1.6v5.6h-1.2V90.4z"/>
	<path class="st0" d="M180.4,90.4v9.2h-1.2v-1.2c-0.2,0.5-0.3,0.9-0.5,1c-0.2,0.2-0.4,0.3-0.7,0.3c-0.5,0-0.9-0.4-1.2-1.2
		c-0.2-0.8-0.4-2-0.4-3.7c0-1.6,0.1-2.8,0.4-3.5c0.2-0.7,0.6-1.1,1.2-1.1c0.5,0,0.9,0.4,1.2,1.2v-1H180.4z M177.8,94.9
		c0,1.2,0.1,2.1,0.2,2.5c0.1,0.5,0.3,0.7,0.6,0.7c0.3,0,0.5-0.2,0.6-0.7c0.1-0.5,0.2-1.4,0.2-2.5c0-1.1-0.1-1.9-0.2-2.5
		c-0.1-0.5-0.3-0.7-0.6-0.7c-0.3,0-0.5,0.2-0.6,0.7C177.8,92.9,177.8,93.7,177.8,94.9z"/>
	<path class="st0" d="M185.8,85.8h1l2,13.7h-1.3l-0.4-2.7h-1.9l-0.4,2.7h-1.2L185.8,85.8z M187.1,95.4l-0.3-2.2
		c-0.2-1.5-0.3-3.1-0.5-4.8c-0.1,0.8-0.1,1.7-0.2,2.5c-0.1,0.8-0.2,1.7-0.3,2.7l-0.2,1.8H187.1z"/>
	<path class="st0" d="M189.6,90.4h1.2v1.1c0.2-0.5,0.4-0.8,0.6-1c0.2-0.2,0.5-0.3,0.8-0.3v1.8c-0.1,0-0.2,0-0.2,0
		c-0.4,0-0.7,0.2-0.9,0.5c-0.2,0.3-0.3,0.8-0.3,1.6v5.6h-1.2V90.4z"/>
	<path class="st0" d="M195.5,90.4h1.2v9.5c0,1.1-0.1,1.9-0.2,2.4c-0.3,0.8-0.9,1.2-1.7,1.2c-0.6,0-1-0.2-1.3-0.7
		c-0.3-0.5-0.5-1.1-0.5-1.9l0-0.3h1.1c0,1,0.3,1.5,0.8,1.5c0.3,0,0.5-0.1,0.6-0.4c0.1-0.2,0.2-0.7,0.2-1.4v-1.8
		c-0.3,0.8-0.6,1.3-1.2,1.3c-0.5,0-0.9-0.4-1.2-1.1c-0.3-0.7-0.4-1.9-0.4-3.5c0-1.7,0.1-2.9,0.4-3.7c0.2-0.8,0.6-1.1,1.2-1.1
		c0.3,0,0.5,0.1,0.6,0.3s0.3,0.5,0.5,1V90.4z M195.5,95c0-2.2-0.3-3.3-0.8-3.3c-0.3,0-0.4,0.2-0.6,0.7c-0.1,0.5-0.2,1.3-0.2,2.4
		c0,1.2,0.1,2,0.2,2.5c0.1,0.5,0.3,0.8,0.6,0.8c0.3,0,0.5-0.2,0.6-0.7C195.5,97.1,195.5,96.2,195.5,95z"/>
	<path class="st0" d="M200.5,96.4h1.1c-0.1,2.2-0.7,3.2-1.9,3.2c-0.3,0-0.6-0.1-0.9-0.3s-0.4-0.5-0.6-0.9c-0.2-0.4-0.3-0.9-0.4-1.5
		c-0.1-0.6-0.1-1.3-0.1-2.1c0-1.6,0.2-2.8,0.5-3.6s0.8-1.2,1.5-1.2c1.3,0,1.9,1.6,1.9,4.9v0.2H199c0,2,0.3,2.9,0.8,2.9
		C200.3,98.2,200.5,97.6,200.5,96.4z M200.5,94.1c0-1-0.1-1.6-0.2-1.9c-0.1-0.3-0.3-0.5-0.5-0.5c-0.2,0-0.4,0.2-0.5,0.5
		c-0.1,0.3-0.2,0.9-0.2,1.9H200.5z"/>
	<path class="st0" d="M202.7,90.4h1.2v1.1c0.3-0.8,0.8-1.2,1.3-1.2c0.5,0,0.9,0.3,1.1,0.9c0.1,0.3,0.2,1,0.2,1.9v6.5h-1.2l0-6.1
		c0-0.6-0.1-1.1-0.2-1.3c-0.1-0.3-0.3-0.4-0.5-0.4c-0.1,0-0.3,0-0.3,0.1c-0.1,0.1-0.2,0.2-0.2,0.3c-0.1,0.2-0.1,0.3-0.1,0.6
		c0,0.2,0,0.5,0,0.9v5.9h-1.2V90.4z"/>
	<path class="st0" d="M208,87.8h1.2v2.6h0.6v1.4h-0.6v7.8H208v-7.8h-0.6v-1.4h0.6V87.8z"/>
	<path class="st0" d="M211.2,86.4c0.2,0,0.4,0.1,0.6,0.3c0.2,0.2,0.2,0.5,0.2,0.8c0,0.3-0.1,0.6-0.2,0.8c-0.2,0.2-0.3,0.3-0.6,0.3
		s-0.4-0.1-0.6-0.3c-0.2-0.2-0.2-0.5-0.2-0.8c0-0.3,0.1-0.6,0.2-0.8C210.8,86.6,211,86.4,211.2,86.4z M210.7,90.4h1.2v9.2h-1.2V90.4
		z"/>
	<path class="st0" d="M213.2,90.4h1.2v1.1c0.3-0.8,0.8-1.2,1.3-1.2c0.5,0,0.9,0.3,1.1,0.9c0.1,0.3,0.2,1,0.2,1.9v6.5h-1.2l0-6.1
		c0-0.6-0.1-1.1-0.2-1.3c-0.1-0.3-0.3-0.4-0.5-0.4c-0.1,0-0.3,0-0.3,0.1c-0.1,0.1-0.2,0.2-0.2,0.3c-0.1,0.2-0.1,0.3-0.1,0.6
		c0,0.2,0,0.5,0,0.9v5.9h-1.2V90.4z"/>
	<path class="st0" d="M222,90.4v9.2h-1.2v-1.2c-0.2,0.5-0.3,0.9-0.5,1c-0.2,0.2-0.4,0.3-0.7,0.3c-0.5,0-0.9-0.4-1.2-1.2
		c-0.2-0.8-0.4-2-0.4-3.7c0-1.6,0.1-2.8,0.4-3.5c0.2-0.7,0.6-1.1,1.2-1.1c0.5,0,0.9,0.4,1.2,1.2v-1H222z M219.3,94.9
		c0,1.2,0.1,2.1,0.2,2.5c0.1,0.5,0.3,0.7,0.6,0.7c0.3,0,0.5-0.2,0.6-0.7c0.1-0.5,0.2-1.4,0.2-2.5c0-1.1-0.1-1.9-0.2-2.5
		c-0.1-0.5-0.3-0.7-0.6-0.7c-0.3,0-0.5,0.2-0.6,0.7C219.4,92.9,219.3,93.7,219.3,94.9z"/>
	<path class="st0" d="M229.6,84.5v15.1h-1.2v-1.2c-0.2,0.5-0.3,0.9-0.5,1c-0.2,0.2-0.4,0.3-0.7,0.3c-0.5,0-0.9-0.4-1.2-1.2
		c-0.2-0.8-0.4-2-0.4-3.7c0-0.8,0-1.5,0.1-2.1c0.1-0.6,0.2-1.1,0.3-1.4s0.3-0.7,0.5-0.8c0.2-0.2,0.4-0.3,0.7-0.3
		c0.3,0,0.5,0.1,0.6,0.3c0.1,0.1,0.2,0.2,0.3,0.4c0.1,0.2,0.2,0.3,0.3,0.6v-6.9H229.6z M226.9,94.9c0,1.2,0.1,2.1,0.2,2.5
		c0.1,0.5,0.3,0.7,0.6,0.7c0.3,0,0.5-0.2,0.6-0.7c0.1-0.5,0.2-1.4,0.2-2.5c0-1.1-0.1-1.9-0.2-2.5c-0.1-0.5-0.3-0.7-0.6-0.7
		c-0.3,0-0.5,0.2-0.6,0.7C227,92.9,226.9,93.7,226.9,94.9z"/>
	<path class="st0" d="M233.4,96.4h1.1c-0.1,2.2-0.7,3.2-1.9,3.2c-0.3,0-0.6-0.1-0.9-0.3s-0.4-0.5-0.6-0.9c-0.2-0.4-0.3-0.9-0.4-1.5
		c-0.1-0.6-0.1-1.3-0.1-2.1c0-1.6,0.2-2.8,0.5-3.6s0.8-1.2,1.5-1.2c1.3,0,1.9,1.6,1.9,4.9v0.2h-2.7c0,2,0.3,2.9,0.8,2.9
		C233.2,98.2,233.4,97.6,233.4,96.4z M233.3,94.1c0-1-0.1-1.6-0.2-1.9c-0.1-0.3-0.3-0.5-0.5-0.5c-0.2,0-0.4,0.2-0.5,0.5
		c-0.1,0.3-0.2,0.9-0.2,1.9H233.3z"/>
	<path class="st1" d="M238.3,85.8h1.6c0.5,0,0.9,0.1,1.2,0.2c0.3,0.1,0.6,0.4,0.8,0.8c0.4,0.6,0.6,1.3,0.8,2.2
		c0.2,0.9,0.2,2.1,0.2,3.8c0,1.5-0.1,2.7-0.3,3.7c-0.2,0.9-0.4,1.6-0.8,2.1c-0.5,0.6-1.3,0.9-2.5,0.9h-1V85.8z M239.6,97.9
		c0.8,0,1.3-0.3,1.6-1c0.3-0.7,0.4-2,0.4-4c0-2.1-0.1-3.6-0.4-4.4c-0.3-0.8-0.7-1.2-1.4-1.2h-0.2V97.9z"/>
	<path class="st1" d="M244.7,86.4c0.2,0,0.4,0.1,0.6,0.3c0.2,0.2,0.2,0.5,0.2,0.8c0,0.3-0.1,0.6-0.2,0.8c-0.2,0.2-0.3,0.3-0.6,0.3
		s-0.4-0.1-0.6-0.3c-0.2-0.2-0.2-0.5-0.2-0.8c0-0.3,0.1-0.6,0.2-0.8C244.3,86.6,244.5,86.4,244.7,86.4z M244.1,90.4h1.2v9.2h-1.2
		V90.4z"/>
	<path class="st1" d="M249.1,90.5v1.6c-0.3-0.3-0.6-0.5-0.9-0.5c-0.1,0-0.2,0-0.3,0.1c-0.1,0.1-0.2,0.1-0.2,0.2
		c-0.1,0.1-0.1,0.2-0.2,0.3c0,0.1-0.1,0.3-0.1,0.4c0,0.4,0.3,1,0.8,1.6c0.2,0.2,0.4,0.5,0.6,0.7c0.1,0.2,0.3,0.4,0.3,0.6
		c0.2,0.4,0.2,0.8,0.2,1.4c0,0.8-0.2,1.5-0.5,2c-0.3,0.5-0.8,0.7-1.3,0.7c-0.3,0-0.7-0.1-1-0.4v-1.6c0.3,0.4,0.7,0.6,1,0.6
		c0.5,0,0.8-0.4,0.8-1.1c0-0.3,0-0.5-0.1-0.7c0-0.1-0.1-0.2-0.2-0.4c-0.1-0.1-0.2-0.3-0.4-0.4c-0.5-0.6-0.8-1-1-1.4
		c-0.2-0.4-0.3-0.9-0.3-1.4c0-0.7,0.2-1.3,0.5-1.8c0.3-0.5,0.7-0.7,1.3-0.7C248.4,90.1,248.8,90.3,249.1,90.5z"/>
	<path class="st1" d="M250.6,87.8h1.2v2.6h0.6v1.4h-0.6v7.8h-1.2v-7.8h-0.6v-1.4h0.6V87.8z"/>
	<path class="st1" d="M253.3,90.4h1.2v1.1c0.2-0.5,0.4-0.8,0.6-1c0.2-0.2,0.5-0.3,0.8-0.3v1.8c-0.1,0-0.2,0-0.2,0
		c-0.4,0-0.7,0.2-0.9,0.5c-0.2,0.3-0.3,0.8-0.3,1.6v5.6h-1.2V90.4z"/>
	<path class="st1" d="M257.2,86.4c0.2,0,0.4,0.1,0.6,0.3c0.2,0.2,0.2,0.5,0.2,0.8c0,0.3-0.1,0.6-0.2,0.8c-0.2,0.2-0.3,0.3-0.6,0.3
		s-0.4-0.1-0.6-0.3c-0.2-0.2-0.2-0.5-0.2-0.8c0-0.3,0.1-0.6,0.2-0.8C256.8,86.6,257,86.4,257.2,86.4z M256.7,90.4h1.2v9.2h-1.2V90.4
		z"/>
	<path class="st1" d="M259.2,84.5h1.2v6.9c0.1-0.2,0.2-0.4,0.3-0.6c0.1-0.2,0.2-0.3,0.3-0.4c0.2-0.2,0.4-0.3,0.6-0.3
		c0.3,0,0.5,0.1,0.7,0.3c0.2,0.2,0.4,0.5,0.5,0.8c0.1,0.4,0.2,0.9,0.3,1.4c0.1,0.6,0.1,1.3,0.1,2.1c0,1.7-0.1,2.9-0.4,3.7
		c-0.2,0.8-0.6,1.2-1.2,1.2c-0.3,0-0.5-0.1-0.7-0.3c-0.2-0.2-0.3-0.5-0.5-1v1.2h-1.2V84.5z M261.9,95c0-1.2-0.1-2.1-0.2-2.5
		c-0.1-0.5-0.3-0.7-0.6-0.7c-0.3,0-0.5,0.2-0.6,0.7c-0.1,0.5-0.2,1.3-0.2,2.5c0,1.2,0.1,2,0.2,2.5c0.1,0.5,0.3,0.7,0.6,0.7
		c0.3,0,0.5-0.2,0.6-0.7C261.8,97,261.9,96.2,261.9,95z"/>
	<path class="st1" d="M264.2,90.4h1.2v6.1c0,0.6,0.1,1,0.2,1.2c0.1,0.2,0.3,0.4,0.5,0.4c0.3,0,0.5-0.1,0.6-0.3
		c0.1-0.2,0.2-0.6,0.2-1.2v-0.7v-5.5h1.2v5.5c0,1.3-0.1,2.1-0.2,2.6c-0.3,0.8-0.8,1.3-1.7,1.3c-0.7,0-1.2-0.2-1.5-0.7
		c-0.3-0.5-0.4-1.3-0.4-2.5V90.4z"/>
	<path class="st1" d="M269.9,86.4c0.2,0,0.4,0.1,0.6,0.3c0.2,0.2,0.2,0.5,0.2,0.8c0,0.3-0.1,0.6-0.2,0.8c-0.2,0.2-0.3,0.3-0.6,0.3
		s-0.4-0.1-0.6-0.3c-0.2-0.2-0.2-0.5-0.2-0.8c0-0.3,0.1-0.6,0.2-0.8C269.5,86.6,269.7,86.4,269.9,86.4z M269.3,90.4h1.2v9.2h-1.2
		V90.4z"/>
	<path class="st1" d="M275.5,84.5v15.1h-1.2v-1.2c-0.2,0.5-0.3,0.9-0.5,1c-0.2,0.2-0.4,0.3-0.7,0.3c-0.5,0-0.9-0.4-1.2-1.2
		c-0.2-0.8-0.4-2-0.4-3.7c0-0.8,0-1.5,0.1-2.1c0.1-0.6,0.2-1.1,0.3-1.4s0.3-0.7,0.5-0.8c0.2-0.2,0.4-0.3,0.7-0.3
		c0.3,0,0.5,0.1,0.6,0.3c0.1,0.1,0.2,0.2,0.3,0.4c0.1,0.2,0.2,0.3,0.3,0.6v-6.9H275.5z M272.8,94.9c0,1.2,0.1,2.1,0.2,2.5
		c0.1,0.5,0.3,0.7,0.6,0.7c0.3,0,0.5-0.2,0.6-0.7c0.1-0.5,0.2-1.4,0.2-2.5c0-1.1-0.1-1.9-0.2-2.5c-0.1-0.5-0.3-0.7-0.6-0.7
		c-0.3,0-0.5,0.2-0.6,0.7C272.9,92.9,272.8,93.7,272.8,94.9z"/>
	<path class="st1" d="M280.6,95c0,3.1-0.7,4.7-2,4.7s-2-1.6-2-4.7c0-3.2,0.7-4.8,2-4.8c0.3,0,0.6,0.1,0.9,0.3s0.5,0.5,0.6,0.9
		c0.2,0.4,0.3,0.9,0.4,1.5S280.6,94.2,280.6,95z M279.4,95c0-1.2-0.1-2-0.2-2.5c-0.1-0.5-0.3-0.7-0.6-0.7c-0.3,0-0.5,0.2-0.6,0.7
		c-0.1,0.5-0.2,1.3-0.2,2.5s0.1,2,0.2,2.5c0.1,0.5,0.3,0.7,0.6,0.7c0.3,0,0.5-0.2,0.6-0.7C279.3,97,279.4,96.2,279.4,95z"/>
	<path class="st1" d="M281.7,90.4h1.2v1.1c0.2-0.5,0.4-0.8,0.6-1c0.2-0.2,0.5-0.3,0.8-0.3v1.8c-0.1,0-0.2,0-0.2,0
		c-0.4,0-0.7,0.2-0.9,0.5c-0.2,0.3-0.3,0.8-0.3,1.6v5.6h-1.2V90.4z"/>
	<path class="st1" d="M287.6,96.4h1.1c-0.1,2.2-0.7,3.2-1.9,3.2c-0.3,0-0.6-0.1-0.9-0.3s-0.4-0.5-0.6-0.9c-0.2-0.4-0.3-0.9-0.4-1.5
		c-0.1-0.6-0.1-1.3-0.1-2.1c0-1.6,0.2-2.8,0.5-3.6s0.8-1.2,1.5-1.2c1.3,0,1.9,1.6,1.9,4.9v0.2h-2.7c0,2,0.3,2.9,0.8,2.9
		C287.4,98.2,287.6,97.6,287.6,96.4z M287.6,94.1c0-1-0.1-1.6-0.2-1.9c-0.1-0.3-0.3-0.5-0.5-0.5c-0.2,0-0.4,0.2-0.5,0.5
		c-0.1,0.3-0.2,0.9-0.2,1.9H287.6z"/>
	<path class="st1" d="M292.3,90.5v1.6c-0.3-0.3-0.6-0.5-0.9-0.5c-0.1,0-0.2,0-0.3,0.1c-0.1,0.1-0.2,0.1-0.2,0.2
		c-0.1,0.1-0.1,0.2-0.2,0.3c0,0.1-0.1,0.3-0.1,0.4c0,0.4,0.3,1,0.8,1.6c0.2,0.2,0.4,0.5,0.6,0.7c0.1,0.2,0.3,0.4,0.3,0.6
		c0.2,0.4,0.2,0.8,0.2,1.4c0,0.8-0.2,1.5-0.5,2c-0.3,0.5-0.8,0.7-1.3,0.7c-0.3,0-0.7-0.1-1-0.4v-1.6c0.3,0.4,0.7,0.6,1,0.6
		c0.5,0,0.8-0.4,0.8-1.1c0-0.3,0-0.5-0.1-0.7c0-0.1-0.1-0.2-0.2-0.4c-0.1-0.1-0.2-0.3-0.4-0.4c-0.5-0.6-0.8-1-1-1.4
		c-0.2-0.4-0.3-0.9-0.3-1.4c0-0.7,0.2-1.3,0.5-1.8c0.3-0.5,0.7-0.7,1.3-0.7C291.6,90.1,292,90.3,292.3,90.5z"/>
	<path class="st1" d="M299.8,84.5v15.1h-1.2v-1.2c-0.2,0.5-0.3,0.9-0.5,1c-0.2,0.2-0.4,0.3-0.7,0.3c-0.5,0-0.9-0.4-1.2-1.2
		c-0.2-0.8-0.4-2-0.4-3.7c0-0.8,0-1.5,0.1-2.1c0.1-0.6,0.2-1.1,0.3-1.4s0.3-0.7,0.5-0.8c0.2-0.2,0.4-0.3,0.7-0.3
		c0.3,0,0.5,0.1,0.6,0.3c0.1,0.1,0.2,0.2,0.3,0.4c0.1,0.2,0.2,0.3,0.3,0.6v-6.9H299.8z M297.2,94.9c0,1.2,0.1,2.1,0.2,2.5
		c0.1,0.5,0.3,0.7,0.6,0.7c0.3,0,0.5-0.2,0.6-0.7c0.1-0.5,0.2-1.4,0.2-2.5c0-1.1-0.1-1.9-0.2-2.5c-0.1-0.5-0.3-0.7-0.6-0.7
		c-0.3,0-0.5,0.2-0.6,0.7C297.2,92.9,297.2,93.7,297.2,94.9z"/>
	<path class="st1" d="M303.7,96.4h1.1c-0.1,2.2-0.7,3.2-1.9,3.2c-0.3,0-0.6-0.1-0.9-0.3s-0.4-0.5-0.6-0.9c-0.2-0.4-0.3-0.9-0.4-1.5
		c-0.1-0.6-0.1-1.3-0.1-2.1c0-1.6,0.2-2.8,0.5-3.6s0.8-1.2,1.5-1.2c1.3,0,1.9,1.6,1.9,4.9v0.2h-2.7c0,2,0.3,2.9,0.8,2.9
		C303.4,98.2,303.7,97.6,303.7,96.4z M303.6,94.1c0-1-0.1-1.6-0.2-1.9c-0.1-0.3-0.3-0.5-0.5-0.5c-0.2,0-0.4,0.2-0.5,0.5
		c-0.1,0.3-0.2,0.9-0.2,1.9H303.6z"/>
	<path class="st1" d="M308.5,85.8h1.7c0.8,0,1.4,0.3,1.8,0.9c0.4,0.6,0.6,1.5,0.6,2.8c0,1.8-0.4,3-1.1,3.5c-0.4,0.2-0.9,0.4-1.6,0.4
		v6.1h-1.3V85.8z M309.8,91.9c0.5,0,0.9-0.2,1.1-0.5c0.2-0.3,0.3-0.9,0.3-1.7c0-0.8-0.1-1.4-0.3-1.8c-0.2-0.4-0.5-0.6-0.9-0.6h-0.2
		V91.9z"/>
	<path class="st1" d="M313.5,90.4h1.2v1.1c0.2-0.5,0.4-0.8,0.6-1c0.2-0.2,0.5-0.3,0.8-0.3v1.8c-0.1,0-0.2,0-0.2,0
		c-0.4,0-0.7,0.2-0.9,0.5c-0.2,0.3-0.3,0.8-0.3,1.6v5.6h-1.2V90.4z"/>
	<path class="st1" d="M320.7,95c0,3.1-0.7,4.7-2,4.7s-2-1.6-2-4.7c0-3.2,0.7-4.8,2-4.8c0.3,0,0.6,0.1,0.9,0.3s0.5,0.5,0.6,0.9
		c0.2,0.4,0.3,0.9,0.4,1.5S320.7,94.2,320.7,95z M319.5,95c0-1.2-0.1-2-0.2-2.5c-0.1-0.5-0.3-0.7-0.6-0.7c-0.3,0-0.5,0.2-0.6,0.7
		c-0.1,0.5-0.2,1.3-0.2,2.5s0.1,2,0.2,2.5c0.1,0.5,0.3,0.7,0.6,0.7c0.3,0,0.5-0.2,0.6-0.7C319.4,97,319.5,96.2,319.5,95z"/>
	<path class="st1" d="M325.5,84.5v15.1h-1.2v-1.2c-0.2,0.5-0.3,0.9-0.5,1c-0.2,0.2-0.4,0.3-0.7,0.3c-0.5,0-0.9-0.4-1.2-1.2
		c-0.2-0.8-0.4-2-0.4-3.7c0-0.8,0-1.5,0.1-2.1c0.1-0.6,0.2-1.1,0.3-1.4s0.3-0.7,0.5-0.8c0.2-0.2,0.4-0.3,0.7-0.3
		c0.3,0,0.5,0.1,0.6,0.3c0.1,0.1,0.2,0.2,0.3,0.4c0.1,0.2,0.2,0.3,0.3,0.6v-6.9H325.5z M322.8,94.9c0,1.2,0.1,2.1,0.2,2.5
		c0.1,0.5,0.3,0.7,0.6,0.7c0.3,0,0.5-0.2,0.6-0.7c0.1-0.5,0.2-1.4,0.2-2.5c0-1.1-0.1-1.9-0.2-2.5c-0.1-0.5-0.3-0.7-0.6-0.7
		c-0.3,0-0.5,0.2-0.6,0.7C322.8,92.9,322.8,93.7,322.8,94.9z"/>
	<path class="st1" d="M326.8,90.4h1.2v6.1c0,0.6,0.1,1,0.2,1.2c0.1,0.2,0.3,0.4,0.5,0.4c0.3,0,0.5-0.1,0.6-0.3
		c0.1-0.2,0.2-0.6,0.2-1.2v-0.7v-5.5h1.2v5.5c0,1.3-0.1,2.1-0.2,2.6c-0.3,0.8-0.8,1.3-1.7,1.3c-0.7,0-1.2-0.2-1.5-0.7
		c-0.3-0.5-0.4-1.3-0.4-2.5V90.4z"/>
	<path class="st1" d="M334.6,90.5v1.7c-0.2-0.3-0.4-0.4-0.6-0.4c-0.7,0-1,1-1,3c0,2.1,0.3,3.2,1,3.2c0.2,0,0.4-0.1,0.6-0.3v1.6
		c-0.3,0.2-0.6,0.4-1,0.4c-1.3,0-1.9-1.6-1.9-4.7c0-1.7,0.2-2.9,0.5-3.7c0.3-0.8,0.8-1.2,1.5-1.2C334,90.2,334.3,90.3,334.6,90.5z"
		/>
	<path class="st1" d="M335.7,87.8h1.2v2.6h0.6v1.4h-0.6v7.8h-1.2v-7.8h-0.6v-1.4h0.6V87.8z"/>
	<path class="st1" d="M342.1,95c0,3.1-0.7,4.7-2,4.7s-2-1.6-2-4.7c0-3.2,0.7-4.8,2-4.8c0.3,0,0.6,0.1,0.9,0.3s0.5,0.5,0.6,0.9
		c0.2,0.4,0.3,0.9,0.4,1.5S342.1,94.2,342.1,95z M340.9,95c0-1.2-0.1-2-0.2-2.5c-0.1-0.5-0.3-0.7-0.6-0.7c-0.3,0-0.5,0.2-0.6,0.7
		c-0.1,0.5-0.2,1.3-0.2,2.5s0.1,2,0.2,2.5c0.1,0.5,0.3,0.7,0.6,0.7c0.3,0,0.5-0.2,0.6-0.7C340.9,97,340.9,96.2,340.9,95z"/>
	<path class="st1" d="M345.7,90.5v1.6c-0.3-0.3-0.6-0.5-0.9-0.5c-0.1,0-0.2,0-0.3,0.1c-0.1,0.1-0.2,0.1-0.2,0.2
		c-0.1,0.1-0.1,0.2-0.2,0.3c0,0.1-0.1,0.3-0.1,0.4c0,0.4,0.3,1,0.8,1.6c0.2,0.2,0.4,0.5,0.6,0.7c0.1,0.2,0.3,0.4,0.3,0.6
		c0.2,0.4,0.2,0.8,0.2,1.4c0,0.8-0.2,1.5-0.5,2c-0.3,0.5-0.8,0.7-1.3,0.7c-0.3,0-0.7-0.1-1-0.4v-1.6c0.3,0.4,0.7,0.6,1,0.6
		c0.5,0,0.8-0.4,0.8-1.1c0-0.3,0-0.5-0.1-0.7c0-0.1-0.1-0.2-0.2-0.4c-0.1-0.1-0.2-0.3-0.4-0.4c-0.5-0.6-0.8-1-1-1.4
		c-0.2-0.4-0.3-0.9-0.3-1.4c0-0.7,0.2-1.3,0.5-1.8c0.3-0.5,0.7-0.7,1.3-0.7C345,90.1,345.4,90.3,345.7,90.5z"/>
	<path class="st1" d="M348.9,85.8h1.3l0.6,5.1l0.1,0.9l0.2,2c0,0.3,0.1,0.6,0.1,0.9c0,0.3,0,0.5,0.1,0.8l0.1,0.7c0-0.1,0-0.3,0-0.4
		c0-0.1,0-0.2,0-0.3l0.2-1.6l0.2-2.1c0-0.2,0-0.4,0.1-0.5c0-0.2,0-0.3,0.1-0.4l0.6-5.1h1.2l-1.9,13.7h-1L348.9,85.8z"/>
	<path class="st1" d="M356.5,96.4h1.1c-0.1,2.2-0.7,3.2-1.9,3.2c-0.3,0-0.6-0.1-0.9-0.3s-0.4-0.5-0.6-0.9c-0.2-0.4-0.3-0.9-0.4-1.5
		c-0.1-0.6-0.1-1.3-0.1-2.1c0-1.6,0.2-2.8,0.5-3.6s0.8-1.2,1.5-1.2c1.3,0,1.9,1.6,1.9,4.9v0.2H355c0,2,0.3,2.9,0.8,2.9
		C356.3,98.2,356.5,97.6,356.5,96.4z M356.5,94.1c0-1-0.1-1.6-0.2-1.9c-0.1-0.3-0.3-0.5-0.5-0.5c-0.2,0-0.4,0.2-0.5,0.5
		c-0.1,0.3-0.2,0.9-0.2,1.9H356.5z"/>
	<path class="st1" d="M358.9,87.8h1.2v2.6h0.6v1.4H360v7.8h-1.2v-7.8h-0.6v-1.4h0.6V87.8z"/>
	<path class="st1" d="M364,96.4h1.1c-0.1,2.2-0.7,3.2-1.9,3.2c-0.3,0-0.6-0.1-0.9-0.3s-0.4-0.5-0.6-0.9c-0.2-0.4-0.3-0.9-0.4-1.5
		c-0.1-0.6-0.1-1.3-0.1-2.1c0-1.6,0.2-2.8,0.5-3.6s0.8-1.2,1.5-1.2c1.3,0,1.9,1.6,1.9,4.9v0.2h-2.7c0,2,0.3,2.9,0.8,2.9
		C363.7,98.2,364,97.6,364,96.4z M363.9,94.1c0-1-0.1-1.6-0.2-1.9c-0.1-0.3-0.3-0.5-0.5-0.5c-0.2,0-0.4,0.2-0.5,0.5
		c-0.1,0.3-0.2,0.9-0.2,1.9H363.9z"/>
	<path class="st1" d="M366.2,90.4h1.2v1.1c0.2-0.5,0.4-0.8,0.6-1c0.2-0.2,0.5-0.3,0.8-0.3v1.8c-0.1,0-0.2,0-0.2,0
		c-0.4,0-0.7,0.2-0.9,0.5c-0.2,0.3-0.3,0.8-0.3,1.6v5.6h-1.2V90.4z"/>
	<path class="st1" d="M370.2,86.4c0.2,0,0.4,0.1,0.6,0.3c0.2,0.2,0.2,0.5,0.2,0.8c0,0.3-0.1,0.6-0.2,0.8c-0.2,0.2-0.3,0.3-0.6,0.3
		s-0.4-0.1-0.6-0.3c-0.2-0.2-0.2-0.5-0.2-0.8c0-0.3,0.1-0.6,0.2-0.8C369.8,86.6,369.9,86.4,370.2,86.4z M369.6,90.4h1.2v9.2h-1.2
		V90.4z"/>
	<path class="st1" d="M372.1,90.4h1.2v1.1c0.3-0.8,0.8-1.2,1.3-1.2c0.5,0,0.9,0.3,1.1,0.9c0.1,0.3,0.2,1,0.2,1.9v6.5h-1.2l0-6.1
		c0-0.6-0.1-1.1-0.2-1.3c-0.1-0.3-0.3-0.4-0.5-0.4c-0.1,0-0.3,0-0.3,0.1c-0.1,0.1-0.2,0.2-0.2,0.3c-0.1,0.2-0.1,0.3-0.1,0.6
		c0,0.2,0,0.5,0,0.9v5.9h-1.2V90.4z"/>
	<path class="st1" d="M380.9,90.4v9.2h-1.2v-1.2c-0.2,0.5-0.3,0.9-0.5,1c-0.2,0.2-0.4,0.3-0.7,0.3c-0.5,0-0.9-0.4-1.2-1.2
		c-0.2-0.8-0.4-2-0.4-3.7c0-1.6,0.1-2.8,0.4-3.5c0.2-0.7,0.6-1.1,1.2-1.1c0.5,0,0.9,0.4,1.2,1.2v-1H380.9z M378.2,94.9
		c0,1.2,0.1,2.1,0.2,2.5c0.1,0.5,0.3,0.7,0.6,0.7c0.3,0,0.5-0.2,0.6-0.7c0.1-0.5,0.2-1.4,0.2-2.5c0-1.1-0.1-1.9-0.2-2.5
		c-0.1-0.5-0.3-0.7-0.6-0.7c-0.3,0-0.5,0.2-0.6,0.7C378.3,92.9,378.2,93.7,378.2,94.9z"/>
	<path class="st1" d="M382.3,90.4h1.2v1.1c0.2-0.5,0.4-0.8,0.6-1c0.2-0.2,0.5-0.3,0.8-0.3v1.8c-0.1,0-0.2,0-0.2,0
		c-0.4,0-0.7,0.2-0.9,0.5c-0.2,0.3-0.3,0.8-0.3,1.6v5.6h-1.2V90.4z"/>
	<path class="st1" d="M386.2,86.4c0.2,0,0.4,0.1,0.6,0.3c0.2,0.2,0.2,0.5,0.2,0.8c0,0.3-0.1,0.6-0.2,0.8c-0.2,0.2-0.3,0.3-0.6,0.3
		s-0.4-0.1-0.6-0.3c-0.2-0.2-0.2-0.5-0.2-0.8c0-0.3,0.1-0.6,0.2-0.8C385.8,86.6,386,86.4,386.2,86.4z M385.7,90.4h1.2v9.2h-1.2V90.4
		z"/>
	<path class="st1" d="M392,95c0,3.1-0.7,4.7-2,4.7s-2-1.6-2-4.7c0-3.2,0.7-4.8,2-4.8c0.3,0,0.6,0.1,0.9,0.3s0.5,0.5,0.6,0.9
		c0.2,0.4,0.3,0.9,0.4,1.5S392,94.2,392,95z M390.7,95c0-1.2-0.1-2-0.2-2.5c-0.1-0.5-0.3-0.7-0.6-0.7c-0.3,0-0.5,0.2-0.6,0.7
		c-0.1,0.5-0.2,1.3-0.2,2.5s0.1,2,0.2,2.5c0.1,0.5,0.3,0.7,0.6,0.7c0.3,0,0.5-0.2,0.6-0.7C390.7,97,390.7,96.2,390.7,95z"/>
	<path class="st1" d="M395.5,90.5v1.6c-0.3-0.3-0.6-0.5-0.9-0.5c-0.1,0-0.2,0-0.3,0.1c-0.1,0.1-0.2,0.1-0.2,0.2
		c-0.1,0.1-0.1,0.2-0.2,0.3c0,0.1-0.1,0.3-0.1,0.4c0,0.4,0.3,1,0.8,1.6c0.2,0.2,0.4,0.5,0.6,0.7c0.1,0.2,0.3,0.4,0.3,0.6
		c0.2,0.4,0.2,0.8,0.2,1.4c0,0.8-0.2,1.5-0.5,2c-0.3,0.5-0.8,0.7-1.3,0.7c-0.3,0-0.7-0.1-1-0.4v-1.6c0.3,0.4,0.7,0.6,1,0.6
		c0.5,0,0.8-0.4,0.8-1.1c0-0.3,0-0.5-0.1-0.7c0-0.1-0.1-0.2-0.2-0.4c-0.1-0.1-0.2-0.3-0.4-0.4c-0.5-0.6-0.8-1-1-1.4
		c-0.2-0.4-0.3-0.9-0.3-1.4c0-0.7,0.2-1.3,0.5-1.8c0.3-0.5,0.7-0.7,1.3-0.7C394.8,90.1,395.2,90.3,395.5,90.5z"/>
</g>
</svg>
